<svg id="Layer_1" data-name="Layer 1" xmlns="http://www.w3.org/2000/svg" viewBox="0 0 566.9 117.9"><defs><style>.cls-1,.cls-2{fill:none;stroke-miterlimit:10;stroke-width:0.24px;}.cls-1{stroke:#fd0;}.cls-2{stroke:#000;}.cls-3{fill:#131108;}.cls-4{fill:#fff;}.cls-5{fill:#e63329;}.cls-6{fill:#fd0;}</style></defs><g id="Layer_1_copy" data-name="Layer 1 copy"><path class="cls-1" d="M97.8,66.6a55.51,55.51,0,0,1-2.3,14.2,37.11,37.11,0,0,1-5.4,10.7c-4.3,5.7-9.5,8.5-13,10.4-.3.2-2.4,1.2-12.2,6.1V66.6H97.8" transform="translate(-2 -1.6)"/><path class="cls-1" d="M39.6,66.6V108c-9.9-4.9-11.9-6-12.2-6.1-3.5-1.9-8.7-4.7-13-10.4A35.87,35.87,0,0,1,9,80.8,54.78,54.78,0,0,1,6.7,66.6H39.6" transform="translate(-2 -1.6)"/><path class="cls-2" d="M97.8,7.6h-33V41.4h33V7.6Z" transform="translate(-2 -1.6)"/><path class="cls-2" d="M39.6,7.6H6.6V41.4h33V7.6Z" transform="translate(-2 -1.6)"/><path class="cls-3" d="M52.2,119.5l-1-.5c-1.5-.7-24.7-12.3-26.1-13C17.6,101.9,2,93.4,2,63.6V3H102.4V63.6c0,29.8-15.6,38.3-23.1,42.4-1.4.8-24.7,12.3-26.1,13Z" transform="translate(-2 -1.6)"/><path class="cls-4" d="M62.4,43.8V5.2H42V43.8H4.2V63.6h0v.6H42v47.7c5.5,2.7,10.2,5.1,10.2,5.1h0l10.2-5.1V64.2h37.8V43.8Z" transform="translate(-2 -1.6)"/><rect class="cls-5" x="2.2" y="3.6" width="37.8" height="38.6"/><rect class="cls-5" x="60.4" y="3.6" width="37.8" height="38.6"/><path class="cls-5" d="M42,64.2H4.2c.2,27.7,14.4,35.7,22,39.8L42,111.9Z" transform="translate(-2 -1.6)"/><path class="cls-5" d="M62.4,64.2v47.7L78.2,104c7.6-4.1,21.8-12.1,22-39.8Z" transform="translate(-2 -1.6)"/><path class="cls-3" d="M75.4,54.3l.8-.9-1-1.2-1,1.2.8.9c0,.5,0,4.6-2.4,6a4.09,4.09,0,0,0,1.9-.1,12.54,12.54,0,0,0,.7,2.3,12.54,12.54,0,0,0,.7-2.3,6.92,6.92,0,0,0,1.9.1C75.4,58.8,75.4,54.7,75.4,54.3Z" transform="translate(-2 -1.6)"/><path class="cls-3" d="M81.6,47.3l.8-.9-1-1.2-1,1.2.8.9c0,.5,0,4.6-2.4,6a4.09,4.09,0,0,0,1.9-.1,12.54,12.54,0,0,0,.7,2.3,12.54,12.54,0,0,0,.7-2.3,6.92,6.92,0,0,0,1.9.1C81.5,51.9,81.6,47.8,81.6,47.3Z" transform="translate(-2 -1.6)"/><path class="cls-3" d="M87.7,54.3l.8-.9-1-1.2-1,1.2.8.9c0,.5,0,4.6-2.4,6a4.09,4.09,0,0,0,1.9-.1,12.54,12.54,0,0,0,.7,2.3,12.54,12.54,0,0,0,.7-2.3,6.92,6.92,0,0,0,1.9.1C87.7,58.8,87.7,54.7,87.7,54.3Z" transform="translate(-2 -1.6)"/><path class="cls-3" d="M93.9,47.3l.8-.9-1-1.2-1,1.2.8.9c0,.5,0,4.6-2.4,6a4.09,4.09,0,0,0,1.9-.1,12.54,12.54,0,0,0,.7,2.3,12.54,12.54,0,0,0,.7-2.3,6.92,6.92,0,0,0,1.9.1C93.8,51.9,93.9,47.8,93.9,47.3Z" transform="translate(-2 -1.6)"/><path class="cls-3" d="M69.2,47.3l.8-.9-1-1.2-1,1.2.8.9c0,.5,0,4.6-2.4,6a4.09,4.09,0,0,0,1.9-.1,12.54,12.54,0,0,0,.7,2.3,12.54,12.54,0,0,0,.7-2.3,6.92,6.92,0,0,0,1.9.1C69.2,51.9,69.2,47.8,69.2,47.3Z" transform="translate(-2 -1.6)"/><path class="cls-3" d="M17.1,54.3l.8-.9-1-1.2-1,1.2.8.9c0,.5,0,4.6-2.4,6a4.09,4.09,0,0,0,1.9-.1,12.54,12.54,0,0,0,.7,2.3,12.54,12.54,0,0,0,.7-2.3,6.92,6.92,0,0,0,1.9.1C17.1,58.8,17.1,54.7,17.1,54.3Z" transform="translate(-2 -1.6)"/><path class="cls-3" d="M23.3,47.3l.8-.9-1-1.2-1,1.2.8.9c0,.5,0,4.6-2.4,6a4.09,4.09,0,0,0,1.9-.1,12.54,12.54,0,0,0,.7,2.3,12.54,12.54,0,0,0,.7-2.3,6.92,6.92,0,0,0,1.9.1C23.2,51.9,23.2,47.8,23.3,47.3Z" transform="translate(-2 -1.6)"/><path class="cls-3" d="M29.4,54.3l.8-.9-1-1.2-1,1.2.8.9c0,.5,0,4.6-2.4,6a4.09,4.09,0,0,0,1.9-.1,12.54,12.54,0,0,0,.7,2.3,12.54,12.54,0,0,0,.7-2.3,6.92,6.92,0,0,0,1.9.1C29.4,58.8,29.4,54.7,29.4,54.3Z" transform="translate(-2 -1.6)"/><path class="cls-3" d="M35.6,47.3l.8-.9-1-1.2-1,1.2.8.9c0,.5,0,4.6-2.4,6a4.09,4.09,0,0,0,1.9-.1,12.54,12.54,0,0,0,.7,2.3,12.54,12.54,0,0,0,.7-2.3,6.92,6.92,0,0,0,1.9.1C35.5,51.9,35.6,47.8,35.6,47.3Z" transform="translate(-2 -1.6)"/><path class="cls-3" d="M10.9,47.3l.8-.9-1-1.2-1,1.2.8.9c0,.5,0,4.6-2.4,6a4.09,4.09,0,0,0,1.9-.1,12.54,12.54,0,0,0,.7,2.3,12.54,12.54,0,0,0,.7-2.3,6.92,6.92,0,0,0,1.9.1C10.9,51.9,10.9,47.8,10.9,47.3Z" transform="translate(-2 -1.6)"/><path class="cls-3" d="M52.5,69.9l.8-.9-1-1.2-1,1.2.8.9c0,.5,0,4.6-2.4,6a4.09,4.09,0,0,0,1.9-.1,12.54,12.54,0,0,0,.7,2.3,12.54,12.54,0,0,0,.7-2.3,6.92,6.92,0,0,0,1.9.1C52.4,74.5,52.4,70.4,52.5,69.9Z" transform="translate(-2 -1.6)"/><path class="cls-3" d="M52.5,90.9l.8-.9-1-1.2-1,1.2.8.9c0,.5,0,4.6-2.4,6a4.09,4.09,0,0,0,1.9-.1,12.54,12.54,0,0,0,.7,2.3,12.54,12.54,0,0,0,.7-2.3,6.92,6.92,0,0,0,1.9.1C52.4,95.4,52.4,91.3,52.5,90.9Z" transform="translate(-2 -1.6)"/><path class="cls-3" d="M58.2,80.4l.8-.9-1-1.2-1,1.2.8.9c0,.5,0,4.6-2.4,6a4.09,4.09,0,0,0,1.9-.1,12.54,12.54,0,0,0,.7,2.3,12.54,12.54,0,0,0,.7-2.3,6.92,6.92,0,0,0,1.9.1C58.1,85,58.2,80.9,58.2,80.4Z" transform="translate(-2 -1.6)"/><path class="cls-3" d="M46.7,80.4l.8-.9-1-1.2-1,1.2.8.9c0,.5,0,4.6-2.4,6a4.09,4.09,0,0,0,1.9-.1,12.54,12.54,0,0,0,.7,2.3,12.54,12.54,0,0,0,.7-2.3,6.92,6.92,0,0,0,1.9.1C46.6,85,46.7,80.9,46.7,80.4Z" transform="translate(-2 -1.6)"/><path class="cls-3" d="M58.2,101.3l.8-.9-1-1.2-1,1.2.8.9c0,.5,0,4.6-2.4,6a4.09,4.09,0,0,0,1.9-.1,12.54,12.54,0,0,0,.7,2.3,12.54,12.54,0,0,0,.7-2.3,6.92,6.92,0,0,0,1.9.1C58.1,105.9,58.2,101.8,58.2,101.3Z" transform="translate(-2 -1.6)"/><path class="cls-3" d="M46.7,101.3l.8-.9-1-1.2-1,1.2.8.9c0,.5,0,4.6-2.4,6a4.09,4.09,0,0,0,1.9-.1,12.54,12.54,0,0,0,.7,2.3,12.54,12.54,0,0,0,.7-2.3,6.92,6.92,0,0,0,1.9.1C46.6,105.9,46.7,101.8,46.7,101.3Z" transform="translate(-2 -1.6)"/><path class="cls-3" d="M52.5,22.3l.8-.9-1-1.2-1,1.2.8.9c0,.5,0,4.6-2.4,6a4.09,4.09,0,0,0,1.9-.1,12.54,12.54,0,0,0,.7,2.3,12.54,12.54,0,0,0,.7-2.3,6.92,6.92,0,0,0,1.9.1C52.4,26.9,52.4,22.8,52.5,22.3Z" transform="translate(-2 -1.6)"/><path class="cls-3" d="M58.2,11.9,59,11,58,9.8,57,11l.8.9c0,.5,0,4.6-2.4,6a4.09,4.09,0,0,0,1.9-.1,12.54,12.54,0,0,0,.7,2.3,12.54,12.54,0,0,0,.7-2.3,6.92,6.92,0,0,0,1.9.1C58.1,16.4,58.2,12.3,58.2,11.9Z" transform="translate(-2 -1.6)"/><path class="cls-3" d="M46.7,11.9l.8-.9-1-1.2-1,1.2.8.9c0,.5,0,4.6-2.4,6a4.09,4.09,0,0,0,1.9-.1,12.54,12.54,0,0,0,.7,2.3,12.54,12.54,0,0,0,.7-2.3,6.92,6.92,0,0,0,1.9.1C46.6,16.4,46.7,12.3,46.7,11.9Z" transform="translate(-2 -1.6)"/><path class="cls-3" d="M58.2,32.8l.8-.9-1-1.2-1,1.2.8.9c0,.5,0,4.6-2.4,6a4.09,4.09,0,0,0,1.9-.1A12.54,12.54,0,0,0,58,41a12.54,12.54,0,0,0,.7-2.3,6.92,6.92,0,0,0,1.9.1C58.1,37.3,58.2,33.3,58.2,32.8Z" transform="translate(-2 -1.6)"/><path class="cls-3" d="M46.7,32.8l.8-.9-1-1.2-1,1.2.8.9c0,.5,0,4.6-2.4,6a4.09,4.09,0,0,0,1.9-.1,12.54,12.54,0,0,0,.7,2.3,12.54,12.54,0,0,0,.7-2.3,6.92,6.92,0,0,0,1.9.1C46.6,37.3,46.7,33.3,46.7,32.8Z" transform="translate(-2 -1.6)"/><path class="cls-3" d="M33.8,24.2l.1.5a6.21,6.21,0,0,0,.3,1c.4,1.8.7,2.3,1.6,2.3a1.23,1.23,0,0,0,1.1-.7l.2-.6c0-.1.2-.2.3-.2.3,0,.5.4.5,1.2,0,.2.1.8.2,1.6a7.08,7.08,0,0,1,.1,1.4,1.8,1.8,0,0,1-.2,1,15,15,0,0,1,.2,2,3.36,3.36,0,0,1-.4,1.9,5,5,0,0,1,.2,1.2,4.48,4.48,0,0,1-.1,1.1c-.1.8-.2,1-.2,1.1a.6.6,0,0,0,.1.4.76.76,0,0,1,.1.4c0,.1,0,.2-.1.2l-.6-.3-.7-.4a1.69,1.69,0,0,1-.7-.6c-.6.6-.8.6-2.4,1.1a2.39,2.39,0,0,0-.7.3l-.4.2c-.3,0-.4-.4-.4-1.4a9,9,0,0,1,.2-1.8,3.63,3.63,0,0,0-1.1-.3,1.75,1.75,0,0,0-.5.1h-.1c-.1,0-.2-.1-.2-.3a4.08,4.08,0,0,1,.2-.7l.3-.8a2.17,2.17,0,0,1,.8-.9,2.51,2.51,0,0,1,.8-.5l1.2-.2c.7-.1,1.1-.5,1.1-1s-.3-.8-1-1L32.2,31a4.88,4.88,0,0,1-1.3-.6c-.8-.5-.9-.5-1.1-.5s-.4.2-.4.6a.92.92,0,0,0,.9,1,.37.37,0,0,0,.3-.1.77.77,0,0,1,.3-.1.22.22,0,0,1,.2.2v.1l-.1.5A5.8,5.8,0,0,1,30,34l-.3.4A4.51,4.51,0,0,1,28,36.9a1.38,1.38,0,0,0-.4.3,1.73,1.73,0,0,1-.3.4c-.1.1-.3.4-.6.8a5,5,0,0,1-.8.7q-.6.45-.6.6l-.3.5c-.1.1-.2.2-.3.2-.3,0-.5-.3-.7-.8s-.2-.5-.5-.5a1.76,1.76,0,0,0-.6.1l-.4.1H21.3a8.42,8.42,0,0,0-1.8.3.49.49,0,0,1-.3.1c-.1,0-.1,0-.2-.2a.37.37,0,0,1-.1-.3,5.7,5.7,0,0,1,1-2.6,3,3,0,0,1,.9-1,1.47,1.47,0,0,0-.9-1.1l-.5-.2c-.1,0-.1-.1-.1-.2s.3-.4.7-.6a4.46,4.46,0,0,1,1.8-.5,2.47,2.47,0,0,1,1.6.7c.9.7,1.1.8,1.5.8a1.32,1.32,0,0,0,1.3-1.3,3,3,0,0,0-.8-1.7,4.18,4.18,0,0,1-1.2-2.6,3.31,3.31,0,0,1,.4-1.5l.3-.5a.37.37,0,0,0,.1-.3c0-.2-.2-.4-.6-.4a7,7,0,0,0-2.3.8,1,1,0,0,0-.6.7.35.35,0,0,0,.1.2l.4.2.1.1a.35.35,0,0,0-.1.2l-.6.8a8.31,8.31,0,0,1-1.3,1.4.75.75,0,0,0-.3.3,5.2,5.2,0,0,1-.3.5,4.62,4.62,0,0,1-1.4,1.4c-.2.2-.4.3-.4.4s-.1.2-.3.4a5.74,5.74,0,0,1-.4.7,4.87,4.87,0,0,1-.8,1l-.9.9a5.33,5.33,0,0,0-.9,2c-.2.7-.4,1.1-.5,1.1s-.1-.1-.3-.2c-.6-.7-1.2-1.2-1.5-1.2-.1,0-.2.1-.4.2a1.9,1.9,0,0,1-.9.3l-1.2.2a2.69,2.69,0,0,0-1.8,1c-.1.1-.2.2-.3.2s-.2-.2-.2-.4v-.3l.2-.9a14.24,14.24,0,0,1,.6-2.1l.5-1a1.69,1.69,0,0,0,.2-.5,1.82,1.82,0,0,0-1.7-1.5c-.2,0-.3-.1-.3-.2s.3-.5.6-.8a3.67,3.67,0,0,1,2-.8,3.35,3.35,0,0,1,1.4.4l.7.3a2.54,2.54,0,0,0,.7.2c.7,0,1.5-.7,2.4-2.2a3.55,3.55,0,0,0,.6-1.6c0-.8-.4-1.3-1-1.3a2,2,0,0,0-1.4.6,1.59,1.59,0,0,0-.5,1v.5c0,.3-.1.5-.3.5s-.7-.4-2-2a4.13,4.13,0,0,1-1.2-2.8c-1.1-1.4-1.4-2-1.4-3v-.7a2.92,2.92,0,0,1-1-2.2,1.2,1.2,0,0,1,.2-.8A3.29,3.29,0,0,1,6,17l-.2-.7a3.34,3.34,0,0,0-.5-1.2c-.3-.4-.3-.5-.3-.6,0-.4.3-.5,1.4-.8a5.64,5.64,0,0,0-.1-.7,2.81,2.81,0,0,1,.1-.8L6.6,11a4.59,4.59,0,0,0,.1-1,2.68,2.68,0,0,0-.2-1,1.54,1.54,0,0,0-.3-.7L6,7.9a.22.22,0,0,1,.2-.2,5,5,0,0,1,2,1.2c1.8,1.5,2.2,2.1,2.5,4a1.49,1.49,0,0,0,.1.6,2.67,2.67,0,0,1,1.3,2.3,4.2,4.2,0,0,1-.6,2.1l-.6,1a2,2,0,0,0-.3,1.1,3.81,3.81,0,0,0,.6,1.9c.5.9.9,1.2,1.4,1.2.8,0,1.6-1.5,1.6-3.1v-.8a4.91,4.91,0,0,1,.1-1.1,4.4,4.4,0,0,0,.1-.9V15.9a.86.86,0,0,0-.3-.6l-.7-.8a5.31,5.31,0,0,1-1.6-2.9,1.61,1.61,0,0,1,1.6-1.7,2,2,0,0,1,.7.1V9.8c0-1.4.3-2.5.7-2.5H15l.6.5.7.4.2.2c0-.4,0-.4.4-.9a5.92,5.92,0,0,0,.4-.6.91.91,0,0,0,.3-.5c.1-.1.1-.2.2-.3s.2-.2.3-.2.2.1.3.5c.1.2.1.3.7.8l.4.4c.1.1.1.3.3.6,0,.1.1.1.1.3a3.39,3.39,0,0,1,.6-.6l.5-.3c.2-.1.3-.2.4-.2l.2.2c.1.1.1.3.3.5a3.34,3.34,0,0,1,.5,1.2V10c1.1.3,1.4.9,1.4,2a4,4,0,0,1-1.3,2.7c-.6.7-.6.8-.6,1.2,0,2.4,1.7,3.7,4.6,3.8h2.1a10.3,10.3,0,0,1,3.5.6,8.19,8.19,0,0,0,2.4.6.6.6,0,0,0,.4-.1c.1-.1.2-.2.2-.3,0-.4-.8-.8-3.4-1.5-5.3-1.5-7.5-3.6-7.5-7.1a4.9,4.9,0,0,1,5.2-4.8,11.27,11.27,0,0,1,3.2.5l1.3.5a1.7,1.7,0,0,0,.7.1c.4,0,.7-.4.7-1.1,0-.4.1-.5.4-.5s.9.5,1.5,1.2a4.57,4.57,0,0,1,.9,2.1A1.88,1.88,0,0,1,37,11.6a3.11,3.11,0,0,1-2.8,1.6c-.9,0-2.2-.5-4.4-1.8-.8-.4-1.1-.6-1.5-.6-.6,0-.9.3-.9.8s.4.8,1.3,1.1A4.77,4.77,0,0,1,31,14a8.07,8.07,0,0,1,3.4,1.3c2.8.9,4.6,2.8,4.6,5A3.47,3.47,0,0,1,35.5,24a1.69,1.69,0,0,1-1.7.2" transform="translate(-2 -1.6)"/><path class="cls-6" d="M37,38.3a2.81,2.81,0,0,1-.1-.8v-.3l.1-.5v-.4a2.51,2.51,0,0,0-.2-1l-.4-.5-.3-.6c0-.1-.1-.2-.1-.3a.22.22,0,0,1,.2-.2c.1,0,.1,0,.4.2a.37.37,0,0,0,.3.1q.3,0,.3-.9A2,2,0,0,0,37,32l-.5-.5-.4-.4c-.1-.1-.2-.2-.2-.3s.1-.2.3-.2a2.54,2.54,0,0,1,.7.2H37c.1,0,.2-.1.2-.3v-.1l-.1-.7-.2-.7c-.1-.2-.1-.3-.2-.3h-.1l-.8.2h-.1a2.77,2.77,0,0,1-2.5-2l-.6-2.1a5,5,0,0,0-1.5-2,1.55,1.55,0,0,0-.6-.3l-.6-.1a.22.22,0,0,1-.2-.2c0-.1.1-.2.4-.2l1.1.1a7.93,7.93,0,0,1,1.7.4,8.17,8.17,0,0,0,2.2.5,2.3,2.3,0,0,0,2.6-2.3,3.89,3.89,0,0,0-1.3-2.8,3,3,0,0,0-1.1-.7.22.22,0,0,0-.2.2v.4h0c0,.2-.1.3-.2.3s-.3-.2-.6-.6a3,3,0,0,0-2.6-2c-.2,0-.3.1-.3.2s.1.2.2.5l.3.6a.77.77,0,0,1,.1.3l-.1.1a.68.68,0,0,1-.5-.3l-.5-.5-.4-.6a2.92,2.92,0,0,0-1.3-1.1,5.44,5.44,0,0,0-.8-.4.6.6,0,0,0-.4-.1.22.22,0,0,0-.2.2.37.37,0,0,0,.1.3c.2.4.3.5.3.6a.22.22,0,0,1-.2.2c-.2,0-.8-.5-1.2-1.2a3.23,3.23,0,0,1-.6-1.8,2.31,2.31,0,0,1,2.4-2.4,4.88,4.88,0,0,1,2.4.8l1.5.9a4.26,4.26,0,0,0,1.8.6,3.71,3.71,0,0,0,.9-.2.76.76,0,0,0,.4-.2c.1-.1.2-.1.2-.2s0-.1-.1-.1l-.2-.1-.7-.1a2.3,2.3,0,0,1-.9-.3l-1.6-.8c-.5-.3-.9-.5-1.1-.6s-.4-.2-.4-.3,0-.1.1-.1a.37.37,0,0,1,.3.1,2.38,2.38,0,0,0,1.2.4l1.4.5a10.73,10.73,0,0,0,2.1.4A1.11,1.11,0,0,0,37,9.7a2.38,2.38,0,0,0-.6-1.4l-.2-.2c-.1,0-.2.1-.2.3v.3l.1.4a.67.67,0,0,1-.6.7,1.09,1.09,0,0,1-.5-.1L32.9,9a9.51,9.51,0,0,0-3.4-.7,4.11,4.11,0,0,0-4.4,4c0,2.5,1.8,4.2,6.2,5.7s5,1.9,5,3a1.41,1.41,0,0,1-1.4,1.2,2,2,0,0,1-.8-.1c-.1,0-.9-.2-2.2-.5a16.84,16.84,0,0,0-4-.5c-3.1,0-4.9.6-6.4,2-.4.4-.5.4-.9.4h-.7a1,1,0,0,0-.9.6,4.54,4.54,0,0,0-.5.9.52.52,0,0,1-.4.2c-.3,0-.5-.2-.8-1a3.59,3.59,0,0,0-.7-1l-.6-.6-.2-.2a.37.37,0,0,1,.1-.3,4.45,4.45,0,0,0,.5-.8c.1-.4.1-.4.3-.4s.3.2.3.9a2.3,2.3,0,0,0,.3.9l.4.8c0,.1.2.2.3.2.3,0,.8-.8.9-1.6s.2-.9.3-.9.1,0,.1.1l.3.6a1.76,1.76,0,0,0,.4.5c.2.1.3.2.4.2h0c.3,0,.3-.2.4-.8v-.3l-.1-.5v-.3c0-.2.1-.3.2-.3s.2,0,.2.1l.3.3a.86.86,0,0,0,.6.3c.3,0,.4-.1.4-.3s-.1-.3-.3-.7l-.2-.4c-.3-.5-.5-.7-.7-.7h-.3l-.4.2c-.1,0-.2.1-.3.1a.1.1,0,0,1-.1-.1,3.62,3.62,0,0,1,.5-1.3,5.92,5.92,0,0,0,.5-2.5c.1-1.7.3-2.8.6-2.8s.2.1.2.5v.7a1.21,1.21,0,0,0,.1.5c.3,0,.6-.4.9-1.1a2.54,2.54,0,0,0,.2-.7v-.1l-.6-1.2-.6-.2a.35.35,0,0,1-.2-.1v-.8l-.1-.5-.1-.3-.2-.4a3.65,3.65,0,0,0-1.3,1c-.3.3-.4.5-.5.5a.22.22,0,0,1-.2-.2,1.09,1.09,0,0,1,.1-.5V9.5a2.11,2.11,0,0,0-1.1-1.8l-.2.3-.2.3-.4.5a3.33,3.33,0,0,0-.3.6c0,.1-.1.3-.1.4V10c0,.3,0,.3-.1.3h-.1l-.2-.3-.4-.4-.5-.4L15.5,9a.37.37,0,0,0-.1.3,1.69,1.69,0,0,0-.2.5v1.1c0,.3-.1.4-.2.4s-.2-.1-.4-.2a.75.75,0,0,0-.5-.1c-.5,0-.8.3-.8.9a3.1,3.1,0,0,0,.5,1.7l.4.5c.1.1.3.3.3.2l.1-.7-.1-.5v-.2c0-.2.1-.3.2-.3s.3.2.4.7l.3,1.2.3,1.5a9.29,9.29,0,0,0,.4,1.3c.3.6.4,1,.5,1.1.4.5.4.5.4.6a.1.1,0,0,1-.1.1.37.37,0,0,1-.3-.1c-.1-.1-.2-.1-.4-.1h-.3c-.5,0-.6.4-.6,2.6a13.9,13.9,0,0,0,.6,3.9l.7,1.7a2.35,2.35,0,0,1,.2.8c0,2.3-3.1,6-6.5,7.7a2.58,2.58,0,0,0-1.8,2.6v.4a1.86,1.86,0,0,1,1.1-.4c1-.2,1.1-.4,1.3-.8L11,37c0-.2.1-.2.9-.6a1.08,1.08,0,0,0,.5-.4c.2-.3.3-.4.4-.4s.1,0,.1.1v.1l-.3.9v.2a1.82,1.82,0,0,0,1.1,1.6,2.83,2.83,0,0,1,.4-1.3l.6-.9a2.42,2.42,0,0,0,.3-1.4,3.08,3.08,0,0,0-.1-1v-.3c0-.2.1-.3.2-.3s.2,0,.2.1l.1.6c0,.1.2.2.3.2.3,0,.7-.4,1.1-1.1a1.34,1.34,0,0,0,.2-.8v-.4l-.1-.5v-.1c0-.2.1-.4.3-.4s.1,0,.1.1l.2.7c.1.2.2.4.4.4s.6-.4.8-.8A2.77,2.77,0,0,0,19,30c0-.7.1-.9.3-.9s.1,0,.2.1l.1.4c0,.2.1.3.2.3a1.91,1.91,0,0,0,.7-.8.37.37,0,0,0,.1-.3.54.54,0,0,0-.3-.4c-.3-.3-.4-.3-.4-.7a1.86,1.86,0,0,1,.4-1.1,3,3,0,0,0,.4-.8c.4-.8.5-1,.7-1s.2.1.2.3a.37.37,0,0,1-.1.3.76.76,0,0,0-.1.4.22.22,0,0,0,.2.2,3.93,3.93,0,0,0,.6-.2,4.13,4.13,0,0,1,.9-.4l1.1-.4a1.85,1.85,0,0,1,1.2,0,2.64,2.64,0,0,0,.7.1.47.47,0,0,0,.5-.5,2.26,2.26,0,0,0-.5-1c-.1-.1-.2-.2-.2-.3v-.1c0-.1.1-.1.2-.1s.7.5,1.2,1.3c2.8,4.3,3.7,5.4,5.6,6s2.4,1,2.4,2.1a4.28,4.28,0,0,1-1,2.3c-1.4,2-1.7,2.7-1.7,4V39c.2-.1.3-.1.4-.2.3-.1.4-.2.5-.2l.8-.2c.2,0,.5-.4.5-.7v-.1l-.1-.7v-.1a1.08,1.08,0,0,1,.3-.7c.1,0,.1-.1.2-.1s.2.1.3.2l.5,1.1c.1.4.3.7,1,1" transform="translate(-2 -1.6)"/><path class="cls-6" d="M11.2,15c-.2,0-.4.2-.4.6l-.1.6a3.75,3.75,0,0,0-.1.8c0,.5.1.8.3.8s.5-.4.7-.8a2,2,0,0,0,.1-.7c0-.2-.1-.5-.1-.7-.1-.4-.3-.6-.4-.6" transform="translate(-2 -1.6)"/><path class="cls-6" d="M8.5,10.3l.4.4A5.1,5.1,0,0,1,10,14.4a14.89,14.89,0,0,1-.1,1.7c0,.5-.1,1-.1,1.3,0,4,1.3,7,3,7,.5,0,.9-.3,1.4-1,.1-.1.2-.2.3-.2s.2.1.2.3l.1.7.1.6.1.7.1.6v.1c0,.2-.1.3-.2.3l-.6.1a1.8,1.8,0,0,0-.9.4c-.5.3-.8.5-.8.6l-.4.7a.22.22,0,0,1-.2.2c-.2,0-.5-.3-.8-.9a4.17,4.17,0,0,1-.5-1c0-.1.1-.1.3-.1h1.1a.22.22,0,0,0,.2-.2.35.35,0,0,0-.1-.2l-1.4-.6a2.89,2.89,0,0,1-1.1-1.1A5.2,5.2,0,0,1,9.1,23a.27.27,0,0,1,.3-.3c.1,0,.1,0,.2.1a.6.6,0,0,0,.4.1.22.22,0,0,0,.2-.2q0-.15-.3-.3A4,4,0,0,1,8,19.7c0-.2.1-.4.2-.4h.2l.4.1h0c.2,0,.3-.1.3-.2s-.1-.2-.3-.3a5.2,5.2,0,0,0-.5-.3,1,1,0,0,1-.4-.5,8.12,8.12,0,0,1-.5-1L7,16.2a5.2,5.2,0,0,1-.3-.5,1.24,1.24,0,0,1-.2-.3,1.93,1.93,0,0,1,1-.3c.4,0,.7.3,1,1.1.2.5.4.8.5.8s.1-.1.1-.4a3.75,3.75,0,0,0-.1-1,2,2,0,0,1-.1-.7l-.1-.4-.4-.2c-.1,0-.2-.2-.3-.3a1.33,1.33,0,0,1-.3-.7,1.49,1.49,0,0,1,.1-.6,9.62,9.62,0,0,0,.4-2.1v-.3Z" transform="translate(-2 -1.6)"/><path class="cls-6" d="M12.3,33.5a6.37,6.37,0,0,1-.9-.2,1.55,1.55,0,0,1-.6-.3,3.46,3.46,0,0,0-1.2-.3,2.11,2.11,0,0,0-1.3.5l.3.2.6.4.6.5c.2.1.3.2.5.2a2.7,2.7,0,0,0,2-1" transform="translate(-2 -1.6)"/><path class="cls-6" d="M24.7,39.3a2.41,2.41,0,0,1,.6-.8c.9-.8,1.3-1.3,1.3-1.8V36c0-.4.1-.5.3-.5s.2,0,.2.1l.2.4c0,.1.1.1.3.1s.3-.1.5-.4l.3-.4a.73.73,0,0,0,.2-.6.76.76,0,0,0-.1-.4c0-.1-.1-.2-.2-.5a1.09,1.09,0,0,1-.1-.5.27.27,0,0,1,.3-.3c.1,0,.2,0,.2.1l.3.3c.1.1.1.1.2.1a.32.32,0,0,0,.3-.3l.3-.5a.37.37,0,0,0,.1-.3q0-.15-.3-.3l-.4-.2a2.5,2.5,0,0,1-1-2.1.37.37,0,0,1,.1-.3l.2-.5a.9.9,0,0,0,.1-.5,1.93,1.93,0,0,0-.3-1c-.3-.4-.4-.6-.4-.7-.2-.5-.3-.6-.4-.6h-.2l-.2.1-.4.2-.4.5-.4.2c-.3.1-.5.7-.5,1.2,0,.8.1,1.1,1.2,3a4.63,4.63,0,0,1,.7,1.8c0,1.3-1.2,2.2-3.5,2.8l-1.5.4a2.69,2.69,0,0,0-2,2.3,2.42,2.42,0,0,1,1.4-.3h.6a.74.74,0,0,0,.8-.4,2.44,2.44,0,0,1,1.1-.9l.5-.2.4-.2h.1c.1,0,.2,0,.2.1a.91.91,0,0,1-.3.5,1.58,1.58,0,0,0-.5,1.2c-.3.3-.2.4.1.8" transform="translate(-2 -1.6)"/><path class="cls-6" d="M20.6,34.3a4.3,4.3,0,0,1,1,.9c.3.4.4.5.7.5a1.09,1.09,0,0,0,.5-.1l.3-.1c.5-.1.7-.2.7-.3s-.1-.2-.2-.3l-.4-.3-.4-.3a1.82,1.82,0,0,0-1.1-.4,2.43,2.43,0,0,0-1.1.4" transform="translate(-2 -1.6)"/><path class="cls-6" d="M31,36.1h.9a1.41,1.41,0,0,0,1.4-1.2q0-.3-.6-.3c-.8-.2-1.3.3-1.7,1.5" transform="translate(-2 -1.6)"/><path class="cls-3" d="M19.1,13.9c0,.3.2.5.3.5s.3-.4.6-.9a5.09,5.09,0,0,0,.9-1.9.22.22,0,0,0-.2-.2h0l-.4.3a9.05,9.05,0,0,1-1.1.6c-.4.1-.5.3-.5.5v.3l.2.5Z" transform="translate(-2 -1.6)"/><path class="cls-3" d="M17.1,12.2l.5.3c.1.1.2.2.2.3V13a1.58,1.58,0,0,0,0,.7.55.55,0,0,1-.6.6c-.1,0-.1-.1-.3-.4l-.7-.8a3.17,3.17,0,0,1-.5-1.4v-.1c0-.2.1-.2.2-.2s.2.1.4.2Z" transform="translate(-2 -1.6)"/><path class="cls-3" d="M18.4,15.6h-.6a1.09,1.09,0,0,0-.4-.2.75.75,0,0,0-.5-.1.46.46,0,0,0-.5.4,3.77,3.77,0,0,0,.4,1.4l.4,1c.4.9.7,1.3,1.2,1.3s.5-.4.8-1.1c.6-1.6,1-1.8,1-2.4,0-.4-.1-.5-.4-.5l-.3-.1-.5.3Z" transform="translate(-2 -1.6)"/><path class="cls-6" d="M18.3,16.5h-.4c-.1,0-.1,0-.2.1l-.1.2.2.8.1.7c.1.4.2.5.5.5s.5-.2.5-.6l.1-.7a1.73,1.73,0,0,1,.1-.7c0-.1,0-.1-.1-.2a.35.35,0,0,0-.2-.1h-.5Z" transform="translate(-2 -1.6)"/><path class="cls-3" d="M93.6,24.2l.1.5a6.21,6.21,0,0,0,.3,1c.4,1.8.7,2.3,1.6,2.3a1.23,1.23,0,0,0,1.1-.7l.2-.6c0-.1.2-.2.3-.2q.45,0,.6,1.2c0,.3.1.8.2,1.6a7.57,7.57,0,0,1,.1,1.5,1.64,1.64,0,0,1-.2.9l.1.4a6.25,6.25,0,0,1,.1,1.2,3.85,3.85,0,0,1-.4,2.3,6.53,6.53,0,0,1,.2,1.1,5.38,5.38,0,0,1-.1,1.1l-.1,1v.6a.76.76,0,0,1,.1.4.35.35,0,0,1-.1.2l-.6-.3-.7-.4a1.69,1.69,0,0,1-.7-.6,2.85,2.85,0,0,1-1.4.8c-1.1.3-1.5.4-1.7.6l-.4.2c-.2,0-.4-.5-.4-1.2a8.09,8.09,0,0,1,.2-2,4.05,4.05,0,0,0-1.2-.3,1.75,1.75,0,0,0-.5.1h-.1c-.1,0-.1-.1-.1-.3a4.29,4.29,0,0,1,.5-1.5,3,3,0,0,1,1.6-1.4l1.2-.2c.7-.1,1.1-.5,1.1-1s-.3-.8-1-1L92.2,31c-.5-.2-.9-.4-1.3-.6s-.6-.3-.7-.4a.37.37,0,0,0-.3-.1.47.47,0,0,0-.5.5,1,1,0,0,0,.9,1,.37.37,0,0,0,.3-.1.37.37,0,0,1,.3-.1.32.32,0,0,1,.3.3,4.35,4.35,0,0,1-.7,2l-.4.5-.3.4a4.21,4.21,0,0,1-1.7,2.5,1.38,1.38,0,0,0-.4.3,1.73,1.73,0,0,1-.3.4c-.1.1-.3.4-.6.8a5,5,0,0,1-.8.7q-.6.45-.6.6l-.3.5c-.1.1-.1.2-.3.2s-.5-.3-.7-.8-.2-.5-.5-.5a1.76,1.76,0,0,0-.6.1l-.4.1H81.5a4.84,4.84,0,0,0-1.8.3.49.49,0,0,1-.3.1c-.2,0-.2-.2-.2-.5A6.17,6.17,0,0,1,81,35.6c-.2-.6-.5-1-.9-1.1a3.22,3.22,0,0,1-.6-.2c-.1,0-.1-.1-.1-.2s.2-.4.7-.6a3.75,3.75,0,0,1,1.7-.5,2.51,2.51,0,0,1,1.7.7c.9.7,1.1.8,1.5.8a1.32,1.32,0,0,0,1.3-1.3,3,3,0,0,0-.8-1.7,4,4,0,0,1-1.2-2.7,3,3,0,0,1,.7-1.9.49.49,0,0,0,.1-.3c0-.2-.3-.3-.6-.3a2.69,2.69,0,0,0-1.3.4c-1,.4-1.5.9-1.5,1.1s.1.2.2.3l.3.2.1.1-.1.2a3.73,3.73,0,0,0-.6.8,8.94,8.94,0,0,1-1.3,1.4q-.3.15-.3.3l-.3.5A3.74,3.74,0,0,1,78.3,33c-.2.2-.4.3-.4.4a1.38,1.38,0,0,0-.3.4,7.35,7.35,0,0,1-1.2,1.7l-.9.9a7.78,7.78,0,0,0-.9,2c-.3.8-.4,1.1-.6,1.1s-.1-.1-.2-.2c-.6-.7-1.2-1.2-1.5-1.2-.1,0-.2.1-.4.2a1.9,1.9,0,0,1-.9.3l-1.2.2a2.3,2.3,0,0,0-1.8,1c-.1.1-.2.2-.3.2s-.2-.2-.2-.4v-.3a6.59,6.59,0,0,0,.2-.9,11.29,11.29,0,0,1,.6-2.1l.6-1a1.69,1.69,0,0,0,.2-.5c0-.7-.7-1.3-1.7-1.5-.2,0-.3-.1-.3-.2s.3-.4.6-.7a2.95,2.95,0,0,1,3.5-.4l.7.3a2.54,2.54,0,0,0,.7.2c.7,0,1.5-.7,2.4-2.2a3.49,3.49,0,0,0,.6-1.7c0-.8-.4-1.3-1-1.3a2,2,0,0,0-1.4.6,1.87,1.87,0,0,0-.5,1v.5c0,.3-.1.4-.3.4s-.5-.2-1.1-.9c-.2-.3-.5-.6-.9-1.1A3.39,3.39,0,0,1,69.2,25c-1.1-1.4-1.4-2.2-1.4-3v-.7a2.66,2.66,0,0,1-.9-2.2,1.49,1.49,0,0,1,.2-.9,3.29,3.29,0,0,1-.6-1.2l-.2-.7a4.33,4.33,0,0,0-.5-1.2c-.3-.4-.3-.5-.3-.6,0-.3.3-.5,1.1-.8l.3-.1a5.64,5.64,0,0,0-.1-.7,2.81,2.81,0,0,1,.1-.8l.2-1.2a4.91,4.91,0,0,0,.1-1.1,2.17,2.17,0,0,0-.2-1,2.39,2.39,0,0,0-.3-.7c-.1-.2-.2-.3-.2-.4s.1-.2.3-.2a.37.37,0,0,1,.3.1,10.67,10.67,0,0,1,3.1,2.5,4.61,4.61,0,0,1,1.1,3.3,2.61,2.61,0,0,1,1.3,2.4,3.81,3.81,0,0,1-.6,1.9,4.43,4.43,0,0,0-.6,1,2,2,0,0,0-.3,1.1,4.13,4.13,0,0,0,.6,1.9c.5.8.9,1.2,1.4,1.2.8,0,1.6-1.5,1.6-3.1V18.6l.1-.8.1-.9.1-.8v-.4c0-.3-.1-.4-1.1-1.5a4.65,4.65,0,0,1-1.6-3.1,1.58,1.58,0,0,1,1.6-1.6,2,2,0,0,1,.7.1V8.5l.2-.8c.2-.7.2-.8.5-.8h.2l.6.5.7.4L77,8c0-.4.1-.5.4-.9a2.09,2.09,0,0,0,.4-.6l.3-.5.2-.3c.1-.2.2-.2.3-.2s.1.1.2.5a.54.54,0,0,0,.3.4l.4.4a2.33,2.33,0,0,1,.7,1.3l.6-.6.5-.3a1.24,1.24,0,0,0,.3-.2.35.35,0,0,1,.1.2c.1.2.2.3.3.5.4.7.4.8.4,1.2v.7a1.74,1.74,0,0,1,1.4,2,4.09,4.09,0,0,1-1.2,2.7c-.5.7-.6.9-.6,1.4,0,2.3,1.7,3.6,4.6,3.7h2.1a10.3,10.3,0,0,1,3.5.6,8.19,8.19,0,0,0,2.4.6c.3,0,.6-.2.6-.4,0-.5-.8-.8-3.4-1.6-5.3-1.5-7.5-3.6-7.5-7.1a5,5,0,0,1,5.2-4.8,11.27,11.27,0,0,1,3.2.5l1.3.5a1.7,1.7,0,0,0,.7.1c.5,0,.6-.3.7-1.1,0-.4.1-.5.4-.5a2.85,2.85,0,0,1,1.5,1.2,4.26,4.26,0,0,1,.8,2.1A1.82,1.82,0,0,1,97,11.1a3.11,3.11,0,0,1-2.8,1.6,10,10,0,0,1-4.4-1.8,2.64,2.64,0,0,0-1.5-.6c-.6,0-.9.3-.9.8s.3.8,1.3,1.1c1.5.5,1.8.7,2.3,1.3a8.07,8.07,0,0,1,3.4,1.3c2.9.9,4.6,2.7,4.6,5.1a3.36,3.36,0,0,1-3.4,3.6c-.9.9-1.2.9-2,.7" transform="translate(-2 -1.6)"/><path class="cls-6" d="M96.8,38.3a1.49,1.49,0,0,1-.1-.6v-.4a6.25,6.25,0,0,0,.1-1.2,1.42,1.42,0,0,0-.2-.6l-.4-.5a1.22,1.22,0,0,1-.4-.9c0-.2,0-.2.2-.2h.1a1.24,1.24,0,0,0,.3.2.37.37,0,0,0,.3.1q.3,0,.3-.9a2,2,0,0,0-.6-1.6l-.4-.4a.37.37,0,0,1-.1-.3c0-.2.1-.3.2-.3a.76.76,0,0,1,.4.1l.4.1H97c.1,0,.2-.1.2-.3v-.1l-.1-.7c-.1-.7-.2-1-.4-1h-.1l-.8.2h-.1a2.88,2.88,0,0,1-2.5-2l-.6-2.1a5,5,0,0,0-1.5-2,1.33,1.33,0,0,0-.7-.3l-.6-.1a.22.22,0,0,1-.2-.2c0-.1.1-.2.3-.2a11.07,11.07,0,0,1,2.8.5,9.67,9.67,0,0,0,2.1.5c1.6,0,2.6-.8,2.6-2.2a4.69,4.69,0,0,0-.6-2.1,4.09,4.09,0,0,0-1.5-1.4.37.37,0,0,0-.3-.1.22.22,0,0,0-.2.2v.4h0c0,.2-.1.3-.2.3s-.4-.2-.6-.6a2.91,2.91,0,0,0-2.5-2c-.2,0-.3.1-.3.2s.1.2.2.4l.3.6a.37.37,0,0,1,.1.3.1.1,0,0,1-.1.1.68.68,0,0,1-.5-.3l-.5-.5-.4-.6A2.85,2.85,0,0,0,89,14.7l-.8-.4a.76.76,0,0,0-.4-.1c-.1,0-.1,0-.1.1a.76.76,0,0,0,.1.4,1.55,1.55,0,0,1,.3.6.22.22,0,0,1-.2.2q-.3,0-1.2-1.2a3.23,3.23,0,0,1-.6-1.8,2.37,2.37,0,0,1,2.4-2.4,5.21,5.21,0,0,1,2.4.8l1.5.9a4.76,4.76,0,0,0,1.8.6,2,2,0,0,0,.9-.2.52.52,0,0,0,.4-.2c.1,0,.1-.1.1-.2s-.1-.2-.3-.2a9,9,0,0,1-3.2-1.3c-.6-.4-.9-.6-1.1-.6s-.4-.2-.4-.3l.1-.1h.2l1.4.5,1.3.5a10.32,10.32,0,0,0,2.2.4.94.94,0,0,0,1-1,2.39,2.39,0,0,0-.2-.9c-.2-.4-.5-.7-.6-.7s-.2.1-.2.3V9c0,.4-.2.7-.6.7a1.09,1.09,0,0,1-.5-.1l-2.1-.7a9.51,9.51,0,0,0-3.4-.7,4.11,4.11,0,0,0-4.4,4c0,2.6,1.8,4.2,6.3,5.7s4.9,1.9,4.9,3a1.27,1.27,0,0,1-1.4,1.2,2.2,2.2,0,0,1-.8-.1c-.2,0-.9-.2-2.2-.5a16.84,16.84,0,0,0-4-.5c-3.2,0-4.7.5-6.4,2a1,1,0,0,1-1,.4h-.7a1,1,0,0,0-.9.6l-.5.9a.52.52,0,0,1-.4.2c-.3,0-.5-.2-.8-1a8.79,8.79,0,0,0-.6-1l-.7-.6-.2-.2c0-.1.1-.2.2-.3s.2-.3.3-.4.2-.3.2-.4v-.3a.22.22,0,0,1,.2-.2c.2,0,.2.1.3.9a2.3,2.3,0,0,0,.3.9l.4.8c0,.1.2.2.3.2.3,0,.8-.8.9-1.6s.2-.9.3-.9.2.1.5.6a1.76,1.76,0,0,0,.4.5c.2.1.3.2.4.2h0c.3,0,.4-.2.4-.8v-.3l-.1-.5v-.3c0-.2.1-.3.2-.3s.2,0,.2.1l.3.3a.86.86,0,0,0,.6.3c.3,0,.4-.1.4-.3s0-.2-.3-.7l-.2-.4c-.3-.5-.4-.7-.7-.7h-.3l-.4.2c-.1,0-.2.1-.3.1a.1.1,0,0,1-.1-.1,3.62,3.62,0,0,1,.5-1.3,6.84,6.84,0,0,0,.5-2.5l.2-1.5c.1-.9.2-1.3.4-1.3s.1,0,.1.1l.1.5v.4a2.77,2.77,0,0,0,.1.8c.1,0,.3-.2.5-.4l.3-.6a3.09,3.09,0,0,0,.2-.8c0-.7-.3-1.1-1.3-1.3a.35.35,0,0,1-.2-.1v-.8l-.1-.4L81,9.4,80.8,9l-.3.2c-.7.4-.8.5-1,.8s-.4.5-.5.5a.35.35,0,0,1-.2-.1l.1-.5V9.8a2.4,2.4,0,0,0-1.1-1.9l-.2.3-.2.3L77,9a1.78,1.78,0,0,0-.4,1v.2c0,.3,0,.3-.2.3h-.1l-.3-.3-.3-.4-.6-.4-.3-.2a2.71,2.71,0,0,0-.3,1.6v.3c0,.3-.1.5-.2.5s-.2-.1-.4-.2a.75.75,0,0,0-.5-.1.82.82,0,0,0-.8.9,2.52,2.52,0,0,0,.5,1.6c.3.4.6.8.7.8a2.44,2.44,0,0,0,.1-.7l-.1-.5v-.2c0-.2.1-.3.2-.3s.3.2.4.7l.3,1.2.3,1.5a9.29,9.29,0,0,0,.4,1.3c.3.6.4,1,.5,1.1.4.5.4.5.4.6a.1.1,0,0,1-.1.1.37.37,0,0,1-.3-.1c-.1-.1-.2-.1-.4-.1h-.2c-.5,0-.6.4-.6,2.6a15.32,15.32,0,0,0,.6,4l.7,1.7a2.35,2.35,0,0,1,.2.8c0,2.3-3.2,6.1-6.5,7.7-1.3.6-1.7,1.3-1.8,3a2.43,2.43,0,0,1,1.1-.4c.9-.3,1.1-.4,1.3-.8l.1-.4c.1-.2.2-.3.8-.6a2.18,2.18,0,0,0,.5-.4c.2-.3.3-.4.4-.4s.1.1.1.2v.1l-.4.9v.2A1.82,1.82,0,0,0,72.9,39c0-.2.1-.3.1-.4a4.05,4.05,0,0,1,.3-1l.6-.9c.2-.3.3-.5.3-1.4V34c0-.2.1-.3.2-.3s.2,0,.2.1l.1.6c0,.1.2.2.3.2.3,0,.7-.4,1.1-1.1a1.2,1.2,0,0,0,.2-.8,3.75,3.75,0,0,0-.1-1v-.2c0-.2.1-.3.2-.3s.1,0,.2.1l.2.7c.1.2.2.4.4.4.5,0,1-1,1.1-2.1,0-.7.1-.9.3-.9s.1,0,.2.1l.1.4c0,.2.1.3.2.3s.2-.1.4-.4c.1-.1.2-.3.3-.4a.37.37,0,0,0,.1-.3c0-.2,0-.2-.3-.4a1,1,0,0,1-.4-.7,4,4,0,0,1,.8-2c.5-.9.6-1,.7-1s.2.1.2.3a.37.37,0,0,1-.1.3.76.76,0,0,0-.1.4c0,.1.1.2.3.2a1.42,1.42,0,0,0,.6-.2,4.13,4.13,0,0,1,.9-.4,5.34,5.34,0,0,0,1.1-.4,1.48,1.48,0,0,1,.7-.1,1.27,1.27,0,0,1,.6.1,2.64,2.64,0,0,0,.7.1.47.47,0,0,0,.5-.5,2.07,2.07,0,0,0-.2-.6,3,3,0,0,0-.3-.4c-.1-.1-.2-.2-.2-.3v-.1c0-.1.1-.1.2-.1.3,0,.7.5,1.2,1.3,2.5,4.1,3.7,5.4,5.6,6s2.4,1,2.4,2.1a4.28,4.28,0,0,1-1,2.3c-1.3,1.8-1.7,2.8-1.7,4v.3c.2-.1.3-.1.4-.2.3-.1.4-.2.5-.2l.8-.2a.75.75,0,0,0,.5-.7v-.1l-.1-.7v-.1c0-.4.2-.7.4-.7a.22.22,0,0,1,.2.2l.5,1.1c.6,0,.8.3,1.5.6" transform="translate(-2 -1.6)"/><path class="cls-6" d="M70.5,16.3v.8c0,.5.1.7.3.7s.5-.4.7-.8a2.92,2.92,0,0,0,.2-.9.85.85,0,0,0-.2-.6c-.1-.4-.3-.5-.5-.5s-.4.4-.5,1.3" transform="translate(-2 -1.6)"/><path class="cls-6" d="M68.3,10.3l.5.4A4.86,4.86,0,0,1,69.9,14v.5L69.8,16v1.3c0,4.2,1.2,7,3,7a2.07,2.07,0,0,0,1.4-1c.1-.1.2-.2.3-.2s.2.1.2.3l.1.7.1.6c0,.3.1.5.1.7a1.76,1.76,0,0,1,.1.6c0,.3-.1.4-.8.5a1.8,1.8,0,0,0-.9.4c-.5.3-.8.5-.8.6l-.4.7a.22.22,0,0,1-.2.2c-.2,0-.4-.3-.8-.9a7.91,7.91,0,0,1-.5-1c0-.1.1-.1.3-.1h1.1a.22.22,0,0,0,.2-.2c0-.1-.1-.1-.1-.2l-1.4-.6a2.79,2.79,0,0,1-1.1-1.1,3,3,0,0,1-.6-1.4c0-.2.1-.4.3-.4s.1,0,.2.1a.76.76,0,0,0,.4.1c.1,0,.1,0,.2-.1s.1-.1.1-.2-.1-.2-.3-.3a4,4,0,0,1-1.9-2.7c0-.2.1-.4.2-.4h.2a4.33,4.33,0,0,1,.5.1c.2,0,.3-.1.3-.2s-.1-.2-.3-.3c-.8-.4-1-.6-1.5-1.8a12.2,12.2,0,0,0-.9-1.7,1.93,1.93,0,0,1,1-.3c.4,0,.7.3,1,1.1.2.5.4.8.5.8s.1-.1.1-.4a3.75,3.75,0,0,0-.1-1,2,2,0,0,1-.1-.7l-.1-.4-.4-.2a1.29,1.29,0,0,1-.5-1.1,1.27,1.27,0,0,1,.1-.6s.1-.3.2-.7a9.32,9.32,0,0,0,.2-1.4V9.9Z" transform="translate(-2 -1.6)"/><path class="cls-6" d="M72.2,33.5a3,3,0,0,1-1.5-.5,3.46,3.46,0,0,0-1.2-.3,2.65,2.65,0,0,0-1.4.5l.3.2.6.4.6.5c.2.1.3.2.5.2a2.88,2.88,0,0,0,2.1-1" transform="translate(-2 -1.6)"/><path class="cls-6" d="M84.5,39.3a2.41,2.41,0,0,1,.6-.8c.9-.8,1.3-1.3,1.3-1.8V36c0-.4.1-.5.3-.5s.2,0,.2.1l.2.4c0,.1.1.1.3.1s.4-.2.8-.8a1,1,0,0,0,.2-.6.76.76,0,0,0-.1-.4c0-.1-.1-.2-.2-.5a1.09,1.09,0,0,1-.1-.5.27.27,0,0,1,.3-.3c.1,0,.2,0,.2.1l.3.3c.1.1.1.1.2.1a.54.54,0,0,0,.4-.3l.3-.5a.37.37,0,0,0,.1-.3q0-.15-.3-.3l-.4-.2a2.3,2.3,0,0,1-1-2,.76.76,0,0,1,.1-.4l.2-.5a1.09,1.09,0,0,0,.1-.5,2.24,2.24,0,0,0-.3-1,7.76,7.76,0,0,1-.4-.7c-.2-.5-.3-.6-.5-.6s-.2,0-.4.2l-.3.2-.4.5-.5.2c-.3.1-.5.7-.5,1.2,0,.7.2,1.1,1.2,2.9a5.28,5.28,0,0,1,.7,1.8c0,1.3-1.3,2.4-3.5,2.8-2.6.5-3.2,1-3.5,2.6a2.42,2.42,0,0,1,1.4-.3h.6a.74.74,0,0,0,.8-.4A2.44,2.44,0,0,1,84,37l.5-.2.4-.2H85c.1,0,.2,0,.2.1a.91.91,0,0,1-.3.5,2.11,2.11,0,0,0-.5,1.1.77.77,0,0,0,.1,1" transform="translate(-2 -1.6)"/><path class="cls-6" d="M80.5,34.3a4.3,4.3,0,0,1,1,.9c.3.4.3.5.7.5a1.09,1.09,0,0,0,.5-.1l.3-.1c.5-.1.7-.2.7-.3a.35.35,0,0,0-.1-.2l-.4-.3-.4-.3a1.78,1.78,0,0,0-1-.4,1.52,1.52,0,0,0-1.3.3" transform="translate(-2 -1.6)"/><path class="cls-6" d="M90.8,36.1h1c.3,0,.5,0,.6-.1a2.17,2.17,0,0,0,.6-.7.6.6,0,0,0,.1-.4c0-.2-.2-.3-.5-.3-.9-.2-1.4.3-1.8,1.5" transform="translate(-2 -1.6)"/><path class="cls-3" d="M78.9,13.9c0,.3.2.5.3.5s.3-.5.7-1a4.25,4.25,0,0,0,.8-1.8.22.22,0,0,0-.2-.2h0l-.4.3a3.58,3.58,0,0,1-1.1.6c-.4.1-.5.3-.5.5v.3l.3.6Z" transform="translate(-2 -1.6)"/><path class="cls-3" d="M76.1,11.5a.76.76,0,0,0-.4-.2.22.22,0,0,0-.2.2v.1a4.33,4.33,0,0,0,.1.5,4.13,4.13,0,0,0,.4.9l.5.8a1,1,0,0,0,.7.4h0a.35.35,0,0,0,.2-.1l.1-.6.2-.6v-.1a.52.52,0,0,0-.2-.4l-.5-.3Z" transform="translate(-2 -1.6)"/><path class="cls-3" d="M78.2,15.6h-.6a1.09,1.09,0,0,0-.4-.2.75.75,0,0,0-.5-.1.47.47,0,0,0-.5.5,3.44,3.44,0,0,0,.4,1.3,10.37,10.37,0,0,1,.4,1c.4.9.7,1.3,1.2,1.3s.7-.3,1-1l.4-1.4c.2-.4.6-.6.6-1a.77.77,0,0,0-.8-.7h-.2l-.5.3Z" transform="translate(-2 -1.6)"/><path class="cls-6" d="M78.1,16.5h-.4c-.1,0-.1,0-.2.1s-.1.1-.1.2l.2.8.1.7c.1.4.1.5.4.5a.58.58,0,0,0,.6-.6l.1-.7a1.73,1.73,0,0,1,.1-.7c0-.1,0-.1-.1-.2a.35.35,0,0,0-.2-.1h-.5Z" transform="translate(-2 -1.6)"/><path class="cls-3" d="M34.4,84.7a3.7,3.7,0,0,1,.4,1.5l.1,1.3c.1,1.3.5,2,1.3,2a1.17,1.17,0,0,0,.7-.2l.4-.4h.1c.2,0,.3.1.3.4v.5a11.45,11.45,0,0,0,.1,1.5,5.7,5.7,0,0,1,.1,1.3,3,3,0,0,1-.3,1.6,6.46,6.46,0,0,1,.4,1.9,2.54,2.54,0,0,1-.4,1.6,8.92,8.92,0,0,1,.2,1.1,5.74,5.74,0,0,1-.1,1.2,4.21,4.21,0,0,0-.1,1.5v.1c0,.2-.1.3-.2.3a.54.54,0,0,1-.4-.3c-.2-.3-.3-.3-.5-.3s-.3.1-.6,1.1a4.88,4.88,0,0,1-.8,1.2,6.78,6.78,0,0,0-.6.9c-.1.4-.2.6-.2.7s-.1.1-.2.2h0q-.75,0-1.8-3.3c-.2-.6-.4-.9-.7-.9a.82.82,0,0,0-.6.4l-.2.4c0,.1-.1.1-.2.1-.3,0-.6-.5-.9-1.1a4,4,0,0,1-.3-1.5c0-1,.7-1.8,3-3a2.83,2.83,0,0,0,.1-4.7,2.87,2.87,0,0,0-1.4-.7.47.47,0,0,0-.5.5q0,.45.6.6c.5.2.7.4.7.6a4.25,4.25,0,0,1-.5,1.2,3.57,3.57,0,0,1-1,1.1,3.35,3.35,0,0,1-1.5,2.1,4.49,4.49,0,0,1-.6,1.2l-.7.9a9.25,9.25,0,0,0-.5,1c-.1.5-.1.6-.3.6s-.8-.5-1.3-1.1a1.5,1.5,0,0,1-.4-1.1c-.3.3-.4.3-1.1.4a6.37,6.37,0,0,0-.9.2,1.69,1.69,0,0,1-.7.3c-.1,0-.2-.1-.2-.3v-.7a5.08,5.08,0,0,1,1-2.9,2.68,2.68,0,0,0-1.6-.8c-.2,0-.2,0-.2-.1a1.1,1.1,0,0,1,.3-.6,1.7,1.7,0,0,1,.6-.6,3.16,3.16,0,0,1,1.9-.7,6.21,6.21,0,0,1,1.8.5,2.35,2.35,0,0,0,.8.2.53.53,0,0,0,.6-.6,9.78,9.78,0,0,0-.9-3,6.88,6.88,0,0,1-.6-2.1,3,3,0,0,1,1.2-2.6,1,1,0,0,0-.7-.2,2.24,2.24,0,0,0-1,.3c-.5.3-.7.5-.7.7s.1.2.3.3.3.2.3.5a3.73,3.73,0,0,1-1.6,2.5A2.91,2.91,0,0,1,22,91.7a2.87,2.87,0,0,1-.7,1.5,7,7,0,0,0-1.2,2.2c-.1.3-.2.5-.3.5a1.49,1.49,0,0,1-.7-.6,7.37,7.37,0,0,1-.5-.6,6.39,6.39,0,0,1-.4-1,.9.9,0,0,1-.5.1h-.8a4.36,4.36,0,0,0-1.8.4.37.37,0,0,1-.3.1c-.2,0-.4-.4-.4-1a5,5,0,0,1,1.1-3.2,1.72,1.72,0,0,1-.6-.6c-.1-.1-.2-.2-.3-.2l-.4-.2c-.1-.1-.2-.1-.2-.2s.5-.6,1-1a2.9,2.9,0,0,1,1.6-.6c.5,0,.8.1,1.5.7.5.4.8.6,1,.6s.3-.1.5-.3a.76.76,0,0,0,.2-.5,3.65,3.65,0,0,0-1.5-2.2,3.53,3.53,0,0,0-1.9-.6,2,2,0,0,0-2,1.2l-.4.7q-.15.3-.3.3c-.2,0-.3-.1-1-.9l-.8-1a2.51,2.51,0,0,1-.5-.8c-.1-.2-.1-.4-.2-.4l-.3-.3a4.89,4.89,0,0,1-1.4-2.7c0-.1-.1-.2-.1-.4a5.48,5.48,0,0,1-1.3-3.2.76.76,0,0,1,.1-.4c-.5-.5-.5-.6-.9-1.8a7.26,7.26,0,0,0-.7-1.7.31.31,0,0,1-.1-.2c0-.2.3-.3.7-.4a2.14,2.14,0,0,1,.6-.1h.6V72a4.14,4.14,0,0,1,.2-1.5,2,2,0,0,0,.1-.7,2.14,2.14,0,0,0-.1-.6,4.33,4.33,0,0,0-.1-.5c0-.1-.1-.2-.1-.3a.22.22,0,0,1,.2-.2.76.76,0,0,1,.4.1c.6.3,1,.6,1.4.8a5.1,5.1,0,0,1,2,3v.3a2,2,0,0,1-.1.5,1.69,1.69,0,0,0,.2.5l.4.5a2.35,2.35,0,0,1,.5,1.3c0,.3-.1.4-.6,1.2a2.38,2.38,0,0,0-.5,1.4,4.14,4.14,0,0,0,.6,2c.4.7.8,1,1.2,1,.7,0,1-.6,1.1-2.3a15.69,15.69,0,0,1,.3-2.4v-.4c0-.2-.1-.3-.3-.6l-1-1.1c-.9-1.1-1.2-1.6-1.2-2.4a1.39,1.39,0,0,1,1.4-1.5h.4v-.2A5.07,5.07,0,0,1,15,69a2.36,2.36,0,0,1,.6-1.2,1.24,1.24,0,0,0,.3.2c.1,0,.2.1.6.2a3.29,3.29,0,0,1,.6.3,5.82,5.82,0,0,1,.5-1.1,4.32,4.32,0,0,1,1-1c.1,0,.3.1.5.4l.6.6a5.92,5.92,0,0,1,.4.6l.1.3c.2-.1.3-.2.4-.2.2-.2.4-.2.5-.3l.6-.3a1.24,1.24,0,0,0,.3-.2c.1,0,.2.2.4,1.3a3.9,3.9,0,0,1,.2,1.4,1.56,1.56,0,0,1,1.5,1.8A4.66,4.66,0,0,1,22.5,75a1,1,0,0,0-.4.8c0,2.8,1,3.7,4.5,4.1A20.44,20.44,0,0,1,32,81.1a12.21,12.21,0,0,0,2.7.6q.9,0,.9-.6c0-.6-.4-.8-3-1.3-5.9-1.2-8.3-3.3-8.3-7.2a4.78,4.78,0,0,1,4.9-4.9,8.26,8.26,0,0,1,4.1,1.4c1.6.9,1.9,1.1,2.3,1.1s.6-.3.6-1c0-.4.1-.7.4-.7s.6.3,1,.7a2.41,2.41,0,0,1,.7,1.8,2.25,2.25,0,0,1-1.8,2.3l-.3.3a2.76,2.76,0,0,1-2.3,1,5.47,5.47,0,0,1-2.8-.9l-1.5-1.1a2.69,2.69,0,0,0-1.6-.7.9.9,0,0,0-1,1,1.47,1.47,0,0,0,1.1,1.4l1.4.5a14.67,14.67,0,0,1,1.4.6,2.25,2.25,0,0,1,.7-.1,5.19,5.19,0,0,1,2.7.7,1.63,1.63,0,0,1,.6.3l.8.2A4.88,4.88,0,0,1,39,81a3.49,3.49,0,0,1-3.8,3.7Z" transform="translate(-2 -1.6)"/><path class="cls-6" d="M33.9,103.8l.2-.4.5-.5a2.35,2.35,0,0,0,.6-1.7,3.55,3.55,0,0,0-.2-1,1.76,1.76,0,0,1-.1-.6.45.45,0,0,1,.3-.4.22.22,0,0,1,.2.2l.5.5a1.37,1.37,0,0,0,.8.5v-.9a4.1,4.1,0,0,0-.7-2.2c-.3-.3-.4-.5-.4-.6a.22.22,0,0,1,.2-.2.1.1,0,0,1,.1.1,1.55,1.55,0,0,0,.6.3c.2,0,.3-.4.3-.8a3.12,3.12,0,0,0-.7-1.8c-.2-.2-.3-.4-.4-.5s-.1-.1-.1-.2.1-.2.3-.2.2,0,.4.2a.31.31,0,0,0,.2.1c.2,0,.3-.4.3-1.3v-1c0-.7-.1-.8-.4-.8h-.3c-1.6,0-2.3-1-2.7-3.7-.3-1.9-1-3.3-1.9-3.6-.5-.2-.7-.3-.7-.4s.1-.2.3-.2a2.07,2.07,0,0,1,.6.2,9.76,9.76,0,0,0,3.3.8,2.61,2.61,0,0,0,2.7-2.6A4.18,4.18,0,0,0,36.2,78a3.51,3.51,0,0,0-.8-.5h-.1l-.2.1.1.5.1.3v.1c0,.1-.1.1-.2.1s-.2,0-.2-.1l-.6-.9a3.21,3.21,0,0,0-2.2-1.3c-.3,0-.4.1-.4.3a.76.76,0,0,0,.2.4.91.91,0,0,1,.3.5v.1a.1.1,0,0,1-.1.1h0c-.2,0-.2-.1-.9-.9a3.85,3.85,0,0,0-2.4-1.3c-.1,0-.2,0-.2.1l-.1.1c0,.1.1.2.2.4s.4.4.4.5-.1.1-.2.1-.6-.3-1.4-.9a3.5,3.5,0,0,1-1.7-2.9,2.12,2.12,0,0,1,2-2.2,3.44,3.44,0,0,1,2.1.8l1.6,1.2a4.38,4.38,0,0,0,2.5.8,1.27,1.27,0,0,0,.6-.1l.2-.2a.44.44,0,0,0-.3-.1,2.26,2.26,0,0,1-1.3-.6l-1.6-1.2a10.57,10.57,0,0,0-1.3-.9c-.8-.4-1-.5-1-.6a.35.35,0,0,1,.2-.1.37.37,0,0,1,.3.1l.8.4a7.6,7.6,0,0,1,1.3.8c1.7,1.1,2.6,1.5,3.6,1.5a1.61,1.61,0,0,0,1.7-1.6,1.27,1.27,0,0,0-.1-.6l-.2-.3-.2-.2-.1.1-.1.7a.31.31,0,0,1-.1.2c-.1.1-.1.2-.2.3s-.3.2-.6.2c-.5,0-1.1-.3-2.6-1.2a7.67,7.67,0,0,0-4-1.5,4.23,4.23,0,0,0-4.2,4.2c0,3.2,2,4.7,8.1,6,2.3.5,3.4,1.2,3.4,2.2s-.8,1.5-2,1.5a2.22,2.22,0,0,1-.9-.1,30.69,30.69,0,0,1-3.3-.9,15.93,15.93,0,0,0-4.3-.6c-2.4,0-4,.7-5.1,2.3a.75.75,0,0,1-.3.3.37.37,0,0,1-.3-.1l-.4-.4a2.45,2.45,0,0,0-1.2-.4,1.08,1.08,0,0,0-.7.3,1.24,1.24,0,0,0-.3.2c-.2,0-.5-.4-.8-.9a4.66,4.66,0,0,1-.5-2.2c0-.3.1-.5.2-.5s.2.1.2.3l.3.9c.1.5.4.9.7.9.1,0,.3-.1.5-.4a2.19,2.19,0,0,0,.3-.5c.2-.6.2-.7.4-.7s.3.1.4.7a1.69,1.69,0,0,0,.2.5c.1.2.3.4.4.6s.2.2.3.2c.3,0,.5-.5.5-1v-.7c0-.2,0-.3.2-.3s.1,0,.2.2a1,1,0,0,0,.5.4,1.69,1.69,0,0,0,.5.2c.1,0,.2-.1.3-.2a.37.37,0,0,0,.1-.3c0-.1-.1-.2-.5-.6a3.12,3.12,0,0,1-.6-1.3c-.1-.3-.2-.4-.3-.4a.31.31,0,0,0-.2.1l-.4.2-.3.1H20a.22.22,0,0,1-.2-.2,2.62,2.62,0,0,1,.6-.8,1,1,0,0,0,.4-.9c0-.5.1-1,.2-1l.1-1.1a8.73,8.73,0,0,1,.5-2.2.35.35,0,0,1,.1-.2c.1,0,.2.2.2.5V73c0,.4.1.6.2.6s.3-.2.4-.6l.3-.7a1.27,1.27,0,0,0,.1-.6,1,1,0,0,0-.9-1.1h-.2a.35.35,0,0,0-.2.1c-.2,0-.3-.2-.3-.4V69.2l-.1-.7v-.3l-.3.2-.4.3-.5.4-.4.4a.31.31,0,0,1-.2.1c-.2,0-.3-.1-.3-.6v-.1c0-.4-.2-.7-.8-1.5l-.2-.2-.1.2-.4.6-.4.9-.1.6a.44.44,0,0,1-.1.3c-.1,0-.2-.1-.3-.2a1.94,1.94,0,0,0-1.4-.9l-.1.2c-.1.4-.2.6-.2.7v1.1c0,.2-.1.3-.2.3h0l-.2-.2c-.1-.1-.2-.1-.4-.1-.6,0-1,.3-1,.8s.1.7.7,1.6c.3.4.6.7.7.7s.1-.2.1-.5l-.1-.4a1.09,1.09,0,0,1-.1-.5c0-.2.1-.3.2-.3.3,0,.6.8.7,2l.1,1.2a3.26,3.26,0,0,0,.4,1.3,4.82,4.82,0,0,0,.8,1.2c.3.2.5.4.5.5a.22.22,0,0,1-.2.2,3.22,3.22,0,0,0-.6-.2h-.3c-.6,0-.9.4-.9,1.5a6.3,6.3,0,0,0,1.9,4.1l1.5,1.2a3.64,3.64,0,0,1,1.3,2.3c0,.9-1,1.9-2.8,2.5l-1.1.4c-.8.3-1.2.8-1.5,2.4a3.71,3.71,0,0,1,.9-.2H16a.67.67,0,0,0,.7-.6v-.3q0-.15.3-.3a1.09,1.09,0,0,0,.4-.2l.4-.3c.1,0,.1-.1.2-.1a.22.22,0,0,1,.2.2.37.37,0,0,1-.1.3,3.59,3.59,0,0,0-.2,1.1,2.73,2.73,0,0,0,.5,1.8,1,1,0,0,1,.1-.4,4.38,4.38,0,0,1,.5-.9,4,4,0,0,0,.8-2v-.1l-.1-.7a.76.76,0,0,1,.2-.4c.1-.1.1-.1.2-.1s.2.1.3.3a1.24,1.24,0,0,0,.2.3c.1,0,.3-.3.5-.6a2.54,2.54,0,0,0,.2-.7.6.6,0,0,0-.1-.4.76.76,0,0,1-.1-.4c0-.1,0-.1.1-.2s.1-.1.2-.1.1,0,.2.1l.3.2a.37.37,0,0,0,.3.1c.1,0,.3-.1.5-.4a2.79,2.79,0,0,0,.5-.9c0-.1-.1-.1-.2-.3a2.54,2.54,0,0,1-1.1-1.7,1.09,1.09,0,0,1,.1-.5l.3-.9c.2-.4.2-.7.3-.7h.1a.22.22,0,0,1,.2.2.76.76,0,0,1-.1.4,1.49,1.49,0,0,0-.1.6c0,.2.1.4.3.4a.9.9,0,0,0,.5-.1,6.61,6.61,0,0,1,2.2-.6,2.13,2.13,0,0,1,1.2.4.37.37,0,0,0,.3.1c.1,0,.1,0,.2-.1s.1-.1.1-.2a.76.76,0,0,0-.2-.4.55.55,0,0,1-.2-.5.22.22,0,0,1,.2-.2c.5,0,1.3,1.6,2,4.1.6,2,.8,2.2,2.7,3.3,1.6.9,2.2,1.8,2.2,3.3A19.3,19.3,0,0,1,33,99.1a4.92,4.92,0,0,0-.4,1.7,7.44,7.44,0,0,0,.3,1.5c.1.4.2.7.2.7.6.4.7.6.8.8" transform="translate(-2 -1.6)"/><path class="cls-6" d="M26.4,99.3c.2-.4.3-.5.6-1.1a3.27,3.27,0,0,0,.7-1.6v-.5c0-.5.1-.7.3-.7s.1,0,.2.1l.2.3c0,.1.1.1.2.1a.54.54,0,0,0,.4-.3,3,3,0,0,0,.4-1.1v-.8a.27.27,0,0,1,.3-.3c.1,0,.2,0,.3.3a1.24,1.24,0,0,0,.2.3c.1,0,.2-.1.3-.2l.3-.4.2-.3v-.2c0-.1-.1-.2-.2-.3a2.5,2.5,0,0,1-.9-2.3,6.25,6.25,0,0,0-.2-1.8,11.89,11.89,0,0,0-.6-1.4,8.34,8.34,0,0,1-.4-1.2c-.1-.3-.2-.4-.4-.4a1.53,1.53,0,0,0-1.5,1.7,6.72,6.72,0,0,0,.7,2.6,8.32,8.32,0,0,1,.8,2.7c0,1.2-.5,1.7-2.1,2.3-1.8.7-2.7,1.6-3,3.3a.37.37,0,0,1,.3-.1c.2-.1.4-.1.4-.2l.5-.1a1.58,1.58,0,0,0,.9-.6l.1-.4a.22.22,0,0,1,.2-.2l.3-.1.3-.1.1.1-.1.4a5.64,5.64,0,0,0-.1.7,1.79,1.79,0,0,0,.3,1.8" transform="translate(-2 -1.6)"/><path class="cls-6" d="M9.2,69.6c0,.2.1.3.1.4a3.22,3.22,0,0,1-.1.8l-.1.7a4.67,4.67,0,0,0,.3,1.7,1.73,1.73,0,0,1,.2.7V74a.35.35,0,0,1-.1.2c-.1,0-.2-.1-.3-.2A2.08,2.08,0,0,0,8,73.5a1.09,1.09,0,0,0-.5.1l.2.4.5,1.2.7,1,.7.5c.1,0,.1.1.2.2a.31.31,0,0,1,.1.2.1.1,0,0,1-.1.1H9.2a.35.35,0,0,0-.2.1,6.47,6.47,0,0,0,.3,1l.3.9.5.5.6.4a.54.54,0,0,1,.3.4.35.35,0,0,1-.1.2h-.3c-.1,0-.2.1-.2.3a2.56,2.56,0,0,0,.6,1.2c.5.7.8.9,1.4.9h.5c.2,0,.4.1.4.3s-.1.2-.3.3c-.4.1-.6.2-.6.4s.1.2.2.3l.3.4a1.18,1.18,0,0,0,.6.5A.91.91,0,0,0,14,85a2.29,2.29,0,0,1,1-.7c1.1-.3,1.3-.4,1.3-.7a.76.76,0,0,0-.1-.4,2.52,2.52,0,0,1-.5-1.6c0-.4-.1-.7-.2-.7s-.2.1-.3.3a1.51,1.51,0,0,1-1.1.7c-1.1,0-2.4-1.7-3.1-4a4.68,4.68,0,0,1-.2-1.7,15,15,0,0,1,.2-2,8.13,8.13,0,0,1,.4-1.6v-.4a6.2,6.2,0,0,0-2.2-2.6" transform="translate(-2 -1.6)"/><path class="cls-6" d="M11.5,74.1a6.48,6.48,0,0,0-.5,2.1c0,.4.1.7.3.7s.1-.1.2-.2l.4-.6c.1-.1.1-.2.2-.4a1.69,1.69,0,0,0,.2-.5,1.27,1.27,0,0,0-.8-1.1" transform="translate(-2 -1.6)"/><path class="cls-6" d="M15.1,88.6l.2.2.3.3c.6.6.7.7,1,.7a5.27,5.27,0,0,0,1.2-.3l.2-.2a1.73,1.73,0,0,0-.3-.4l-.4-.3a2.77,2.77,0,0,0-.9-.5c-.4-.1-.7.1-1.3.5" transform="translate(-2 -1.6)"/><path class="cls-6" d="M22.5,94.4a1.63,1.63,0,0,1,.6.3,5.2,5.2,0,0,0,.5.3,4.33,4.33,0,0,0,.5.1.6.6,0,0,0,.4-.1l.7-.3.6-.2a1.24,1.24,0,0,0,.3-.2,1.09,1.09,0,0,0-.4-.2,1.69,1.69,0,0,1-.5-.2c-.8-.3-.9-.4-1.2-.4a2.65,2.65,0,0,0-1.5.9" transform="translate(-2 -1.6)"/><path class="cls-6" d="M30.6,100.8c.2-.5.4-.6,1.1-.6s1.6-1.5,1.6-2.5c0-.1,0-.2-.1-.2a.31.31,0,0,0-.2.1c-.2.2-.4.2-.5.3l-.9.4a2.3,2.3,0,0,0-1.2,1.8c0,.1.1.3.2.7" transform="translate(-2 -1.6)"/><path class="cls-3" d="M16.8,72.9l.3.5a3,3,0,0,0,.7.5c.1,0,.1-.1.2-.3l.1-.5v-.5c0-.4-.2-.6-1.1-.8-.2-.1-.3,0-.4-.2a.76.76,0,0,0-.4-.2c-.1,0-.1,0-.1.1v.1l.2.5Z" transform="translate(-2 -1.6)"/><path class="cls-3" d="M20.2,72.9l-.4.7-.2.2h0c-.2,0-.3-.4-.4-.8l-.1-.6c0-.3.2-.4.6-.5s.5-.1.6-.2c.3-.2.5-.3.5-.4h.1c.1,0,.1.1.1.2h0l-.2.5Z" transform="translate(-2 -1.6)"/><path class="cls-3" d="M19.4,75.1l.5-.3a.35.35,0,0,0,.2-.1.46.46,0,0,1,.4.5,4,4,0,0,1-.7,1.6c-.4.8-.7,1.3-1.1,1.3s-1.1-.7-1.7-2a2.92,2.92,0,0,1-.2-.9c0-.4.2-.6.5-.6a.6.6,0,0,1,.4.1l.3.2a1.33,1.33,0,0,0,.8.3.66.66,0,0,0,.6-.1" transform="translate(-2 -1.6)"/><path class="cls-6" d="M18.6,75.9l-.4-.1h-.1a.27.27,0,0,0-.3.3,3.88,3.88,0,0,0,.6,1.4.31.31,0,0,0,.2.1c.2,0,.4-.4.5-1l.1-.5V76c0-.2-.1-.3-.2-.3h-.1" transform="translate(-2 -1.6)"/><path class="cls-3" d="M90.2,84.3a2.88,2.88,0,0,0,2,1.2c.2,0,.5-.1.9-.1.2,0,.3-.1.4-.1s.2.1.2.2a2.07,2.07,0,0,1-.2.6,1.42,1.42,0,0,0-.2.6l-.1.7-.3.6-.4.4-.1.1v.4a1.77,1.77,0,0,1-.9,1.7c-.1,0-.1.1-.2.2l-.1.3a3,3,0,0,1-.3,1.1,6.78,6.78,0,0,1-.6.9,6.55,6.55,0,0,0-.8,1.3c-.1.3-.2.4-.4.4s-.6-.4-.7-.9c-.1.1-.1.2-.2.2l-.4.3-.6.4a2.74,2.74,0,0,0-.5.4l-.4.4c-.1.1-.1.1-.2.1s-.3-.3-.5-.8l-.3-1.1a3.08,3.08,0,0,1-.1-1,2,2,0,0,1,.2-1.1c-.6.1-.8.1-1.2.2-.1,0-.2.1-.3.1a.22.22,0,0,1-.2-.2,4.33,4.33,0,0,0,.1-.5l.4-1.1a2.8,2.8,0,0,1,2.2-1.6,3.09,3.09,0,0,1,.8.2,1.09,1.09,0,0,0,.5.1.67.67,0,0,0,.7-.6c0-.2-.1-.4-.3-.4a6.74,6.74,0,0,1-1.2-.4,3.17,3.17,0,0,1-1.4-1.1c-.4-.5-.6-.7-.8-.7a.22.22,0,0,0-.2.2v.6a6.36,6.36,0,0,1-.9,2.9L82.7,91a4.47,4.47,0,0,0-.6,2c0,.6.3,1.2.6,1.3l.5.1c.1,0,.1,0,.2.1s.1.1.1.2-.1.2-.2.3a7.68,7.68,0,0,1-.6.7,3,3,0,0,1-1.6,1.2A3.33,3.33,0,0,1,79,98.8l-.1.2a2.51,2.51,0,0,1-1.8,1.3H77a2.49,2.49,0,0,1-1.1,1.6c-.4.3-.7.5-.7.5a1.24,1.24,0,0,0-.2.3c-.1.3-.3.5-.5.5s-.6-.3-.8-.9c-.1.1-.2.1-.3.2a4.57,4.57,0,0,1-.6.4,3,3,0,0,1-1.1.3c-.8.2-1.5.5-1.6.8l-.3.5-.1.1c-.2,0-.3-.2-.4-.5a7.39,7.39,0,0,1-.3-1.8,4,4,0,0,1,1.5-3V99a3,3,0,0,1,3.3-3h.3l1.1.1h.1a2.51,2.51,0,0,0,1.7-.7,1.91,1.91,0,0,0,1-1.8,8.67,8.67,0,0,0-.3-1.3,3.89,3.89,0,0,1-.2-1.5,5.4,5.4,0,0,1,2.3-3.9c.3-.2.6-.5.6-.7s0-.1-.1-.1-.2.1-.4.2-.4.3-.8.5l-.5.3-.6.2q-.3.15-.3.3a.37.37,0,0,0,.1.3.35.35,0,0,0,.1.2c0,.1-.1.2-.2.4l-.4.7A3.23,3.23,0,0,1,76,90.5c-.4,1.1-.9,1.6-1.6,1.7A2.67,2.67,0,0,1,72.2,94a3,3,0,0,1-1,1.5c-.2.2-.4.4-.4.5-.3.4-.3.5-.4.5a1.3,1.3,0,0,1-.7-.5,1.38,1.38,0,0,1-.3-.4l-.3-.5c-.1-.2-.2-.2-.3-.2h-.2l-.7.1a2.73,2.73,0,0,0-1.3.7l-.4.6c0,.1-.1.1-.2.1-.3,0-.5-.6-.5-1.7a3,3,0,0,1,.5-2l.9-1.2c.1-.2.2-.3.2-.5a.76.76,0,0,0-.2-.4c-.2-.2-.4-.4-.5-.4l-.7-.1c-.1,0-.2,0-.2-.1s0-.1.1-.2a2.7,2.7,0,0,1,.8-.7,3.43,3.43,0,0,1,1.9-.7,4.06,4.06,0,0,1,1.7.5l.9.6a.6.6,0,0,0,.4.1,1.4,1.4,0,0,0,1.1-.8,3.07,3.07,0,0,0,.4-1.5,2.05,2.05,0,0,0-2.1-2.1,2.93,2.93,0,0,0-1.7.6c-.2.1-.3.2-.3.4l-.3.6-.2.2c-.2,0-.5-.5-.8-1.1a3.37,3.37,0,0,1-.4-1.2,5,5,0,0,1-.3-1.6v-.9a3.61,3.61,0,0,1-.6-2,2.8,2.8,0,0,1,.2-1.1,2.12,2.12,0,0,1-.4-1.4v-.4l.1-.4.1-.4a4.7,4.7,0,0,1-.7-2.1,6.8,6.8,0,0,0-.4-1.3.31.31,0,0,1-.1-.2c0-.2.4-.4,1-.4h.5a1.49,1.49,0,0,1-.1-.6,6.88,6.88,0,0,1,.2-1.3,1.72,1.72,0,0,0,.2-.8c0-.4-.1-.8-.1-1l-.3-.6a.37.37,0,0,1-.1-.3c0-.1,0-.1.2-.1a5.86,5.86,0,0,1,2.8,1.6,3.52,3.52,0,0,1,1.2,2.9l-.1.7c.9.8,1.3,1.4,1.3,2.1a1.94,1.94,0,0,1-.6,1.3,2.74,2.74,0,0,0-1.1,2.4c0,1.7.5,2.6,1.4,2.6s1.5-.9,1.6-2.2L73,78a7.38,7.38,0,0,1,.2-1.2,2.81,2.81,0,0,0,.1-.8c0-.4-.3-1-1.1-2S71,72.4,71,71.6a1.61,1.61,0,0,1,1.6-1.7.85.85,0,0,1,.6.2,2,2,0,0,1,.4-1.4,2.36,2.36,0,0,1,.6-1.1.31.31,0,0,1,.2.1c.1.1.3.3.4.3a1.24,1.24,0,0,1,.3.2l.3.3a2.75,2.75,0,0,1,1-1.6c.4-.4.6-.6.7-.6s.1.1.2.2l.4.5.5.6a1.57,1.57,0,0,1,.4,1l.3-.2.5-.3c.1-.1.2-.1.4-.3a.31.31,0,0,1,.2-.1c.1,0,.1.1.2.2l.2.7.4.8a1.55,1.55,0,0,1,.2.8v.2h.2A1.48,1.48,0,0,1,82.4,72a4.72,4.72,0,0,1-2.1,3.4,2.77,2.77,0,0,0-.1.9c0,2.5.7,3.1,4.6,3.7a15,15,0,0,1,2.6.5c.1,0,1,.3,2.5.8a5.81,5.81,0,0,0,1.9.4c.5,0,.7-.1.7-.4s-.6-.8-2.6-1.6l-2.8-1.1c-2.8-1.1-4.2-2.8-4.2-5.4A5,5,0,0,1,88.1,68a10.33,10.33,0,0,1,3.8.8,18.34,18.34,0,0,0,2.3.8c.4,0,.6-.3.7-.8s.2-.7.4-.7c.4,0,.8.4,1.1,1a3.29,3.29,0,0,1,.4,1.7,1.88,1.88,0,0,1-1.6,2,3,3,0,0,1-2.6,1.3c-1.3,0-1.9-.3-4.1-1.6a2.7,2.7,0,0,0-1.7-.6A1.17,1.17,0,0,0,85.5,73c0,.6.5,1,1.5,1.3a2.81,2.81,0,0,1,1.1.5,1.34,1.34,0,0,1,.5-.1A6,6,0,0,1,92,76.2a5.33,5.33,0,0,1,3.7,4.5,3.74,3.74,0,0,1-3.6,3.7c.1.2-1,.1-1.9-.1" transform="translate(-2 -1.6)"/><path class="cls-6" d="M89,93.1l.1-.4.1-.5c0-.1.1-.3.4-.5a2.77,2.77,0,0,0,.5-1.6,1.42,1.42,0,0,0-.2-.6.37.37,0,0,1-.1-.3.1.1,0,0,1,.1-.1A.1.1,0,0,1,90,89h0c.1,0,.2.1.3.2a.75.75,0,0,0,.3.3c.1,0,.3-.2.4-.6a.44.44,0,0,1,.1-.3,1.9,1.9,0,0,0-.3-.9.37.37,0,0,1-.1-.3.22.22,0,0,1,.2-.2c.1,0,.2.1.4.3a.31.31,0,0,0,.2.1c.2,0,.3-.2.5-.7a1.34,1.34,0,0,0,.1-.5c0-.1,0-.1-.1-.1h-.5a2.62,2.62,0,0,1-1.8-.9l-.9-1.1c-.3-.4-.8-1.1-.8-1.1l-.7-.5c-.1-.1-.2-.2-.2-.3s.1-.2.3-.2a8.46,8.46,0,0,1,1.7.6,9.74,9.74,0,0,0,3.2.7,2.78,2.78,0,0,0,2.8-2.7,4,4,0,0,0-1.3-2.6,1.52,1.52,0,0,0-.6-.4.22.22,0,0,0-.2.2.76.76,0,0,0,.1.4c0,.1.1.2.1.3a.22.22,0,0,1-.2.2q-.3,0-.6-.9c-.2-.7-.6-1.1-1.6-1.6a4.91,4.91,0,0,0-1-.4.1.1,0,0,0-.1.1.6.6,0,0,0,.1.4l.3.6h0a.22.22,0,0,1-.2.2c-.2,0-.3-.1-.7-.8a3.14,3.14,0,0,0-1.4-1.1,1.09,1.09,0,0,0-.5-.1h0a.35.35,0,0,0-.2.1.44.44,0,0,1,.1.3v.2a.22.22,0,0,1-.2.2,4,4,0,0,1-1.3-1,3.15,3.15,0,0,1-.8-1.9,2.51,2.51,0,0,1,2.5-2.3,1.88,1.88,0,0,1,.8.2l1.1.6,1.3.9a5.52,5.52,0,0,0,2.4.9,2.68,2.68,0,0,0,1-.2c.3-.1.5-.2.5-.3h0l-.1-.1-.7-.1a4.75,4.75,0,0,1-2-.9l-1.5-1-1.3-.5a.22.22,0,0,1-.2-.2c0-.1.1-.1.2-.1a1.58,1.58,0,0,1,.4.1l1.2.4a8.48,8.48,0,0,1,1.5.7,6.69,6.69,0,0,0,2.8,1,1.24,1.24,0,0,0,1.3-1.2c0-.2-.1-.6-.1-.9a.76.76,0,0,0-.2-.4c-.1-.1-.1-.1-.2-.1s-.1.1-.1.3v.4c0,.6-.2.8-.9.8a8.8,8.8,0,0,1-2.9-.9,9,9,0,0,0-3.4-.8,4.5,4.5,0,0,0-4.5,4.2q0,2.85,3.9,4.5l2.7,1.1c2.3.9,3.1,1.6,3.1,2.5,0,.7-.7,1.2-1.7,1.2a5.92,5.92,0,0,1-2.1-.5A19.09,19.09,0,0,0,84,81.4a6.86,6.86,0,0,0-5.4,2.1c-.2.2-.3.2-.4.2s-.2,0-.5-.2a1.85,1.85,0,0,0-.7-.2,1.52,1.52,0,0,0-.8.4l-.3.4c-.1.1-.2.2-.3.2s-.6-.4-.9-.9a1.6,1.6,0,0,1-.3-.8c0-.2-.1-.5-.1-.9v-.6l.1-.6a1.21,1.21,0,0,1,.1-.5c0-.1.1-.1.2-.1s.2.2.2.5v.3c0,.9.4,1.7.8,1.7s.6-.6.8-1.7c0-.2.1-.4.2-.4s.2.2.3.6a4.67,4.67,0,0,0,.5,1,.54.54,0,0,0,.4.3c.3,0,.4-.4.6-1.3q.15-.6.3-.6c.1,0,.1,0,.1.1a1.09,1.09,0,0,1,.2.4,1.38,1.38,0,0,0,.4.3.76.76,0,0,0,.4.1.37.37,0,0,0,.3-.1c.1-.1.2-.2.2-.3a1.24,1.24,0,0,1-.2-.3,2.65,2.65,0,0,1-.6-1.1,1.54,1.54,0,0,0-.3-.7c-.1-.1-.1-.2-.2-.2h-.3s-.3.1-.7.2h-.2c-.1,0-.1-.1-.1-.2s.1-.2.3-.4a4.66,4.66,0,0,0,1.5-3.3,3.29,3.29,0,0,1,.6-1.9l.2-.2c.1,0,.2.1.2.3a1.09,1.09,0,0,1-.1.5c0,.1-.1.3-.1.4V74l.1.2.4-.1.4-.4a2.84,2.84,0,0,0,.4-1.3.91.91,0,0,0-.3-.7c-.2-.2-.3-.3-.5-.3h-.4c-.2,0-.3-.1-.3-.2l.1-.2v-.4l-.2-.8-.2-.4-.1-.3-.2.2-.5.3c-.1.1-.3.2-.4.4-.5.6-.5.6-.7.6s-.2,0-.2-.1v-.1a2,2,0,0,0,.1-.7,3.07,3.07,0,0,0-.9-1.9,2.6,2.6,0,0,0-1,2v.4c0,.1,0,.2-.1.2h0a.22.22,0,0,1-.2-.2l-.4-.5a3.61,3.61,0,0,0-.5-.4c-.1,0-.1-.1-.3-.2l-.1.3a3.07,3.07,0,0,0-.4,1.5c0,.4-.1.6-.2.6a.31.31,0,0,1-.2-.1c-.5-.3-.5-.3-.7-.3a.94.94,0,0,0-1,1,2.43,2.43,0,0,0,.4,1.1c.3.5.7,1,.9,1s.1,0,.1-.2v-.6l-.1-.4v-.1c0-.1,0-.2.1-.2.3,0,.5.8.8,2.5a5.29,5.29,0,0,0,1.2,3.1l.3.3a.1.1,0,0,1-.1.1c-.1,0-.2-.1-.4-.2a.37.37,0,0,0-.3-.1.86.86,0,0,0-.7.8L73.8,81l-.2,2.6a7.18,7.18,0,0,0,.2,1.9c.1.7.2,1.2.2,1.5a4.13,4.13,0,0,1-3.2,4l-2.1.6c-1.3.4-1.9,1.2-2.1,2.8.3-.3.4-.3.9-.4l.6-.1a.59.59,0,0,0,.5-.2c.1,0,.2-.2.4-.4l.5-.6c.2-.2.4-.4.5-.4s.1.1.1.2a1.69,1.69,0,0,1-.2.5,1.08,1.08,0,0,0-.2.8,2.14,2.14,0,0,0,.5,1.3.76.76,0,0,0,.1-.4c.1-.1.2-.3.5-.7a5.48,5.48,0,0,0,.8-1.4c0-.5.1-.7.2-.7s.1,0,.2.3c0,.1,0,.1.1.2s.1.1.2.1a.77.77,0,0,0,.3-.1,2.18,2.18,0,0,0,.5-.4l.3-.6a3.93,3.93,0,0,0,.2-.6v-.4c0-.1,0-.2.1-.2s.2.2.3.4.1.2.2.2h0c.1,0,.2-.1.3-.1a1.93,1.93,0,0,0,.6-1.2v-.6l-.1-.5h0a.22.22,0,0,1,.2-.2c.1,0,.3.2.5.7q.15.3.3.3c.2,0,.3-.1.6-.5l.3-.4a.5.5,0,0,0,0-.6l-.3-.4c0-.1-.1-.2-.1-.3a3.74,3.74,0,0,1,.5-1.5,5.44,5.44,0,0,0,.4-.8c.1-.1.1-.2.2-.2s.1.1.1.2v1c0,.1.1.2.3.2a.37.37,0,0,0,.3-.1l.8-.3a5.74,5.74,0,0,0,.7-.4,4.1,4.1,0,0,1,2.3-.8,2.87,2.87,0,0,1,1.5.5.49.49,0,0,0,.3.1c.1,0,.2-.1.3-.2a.31.31,0,0,0,.1-.2.6.6,0,0,0-.1-.4,1.69,1.69,0,0,1-.2-.5.1.1,0,0,1,.1-.1.22.22,0,0,1,.2.2c.1.2.3.6.7,1.3a4,4,0,0,0,2.1,2l1.4.3c.4.1.5.3.5.8a2.81,2.81,0,0,1-1.3,2.4l-1.2.7a2.26,2.26,0,0,0-.8,1.6,12.77,12.77,0,0,0,.2,1.7l.2-.2.5-.3.5-.5.3-.7.3-.6c.1-.3.3-.5.4-.5s.2.2.2.5v.2c.3-.2.4,0,.7.7" transform="translate(-2 -1.6)"/><path class="cls-6" d="M70.1,102.3c0-1.5.6-2.2,2.8-3.3,4.4-2.2,6.7-4.2,6.7-5.8a6.09,6.09,0,0,0-.4-1.7,5,5,0,0,1-.3-1.4,4.35,4.35,0,0,1,1.3-2.5l.6-.5a1.79,1.79,0,0,0,.6-1v-.3c0-.3.1-.4.5-.5h.3a.35.35,0,0,0,.2-.1c.1,0,.2.1.3.2l.2.3.2.3c.1.1.1.1.2.1a.31.31,0,0,0,.2-.1.76.76,0,0,1,.4-.1.27.27,0,0,1,.3.3A4.84,4.84,0,0,1,83,88.8c-1.2,1.7-1.6,2.6-1.6,3.6a3.41,3.41,0,0,0,.7,2.2.31.31,0,0,1,.1.2c0,.1-.1.2-.2.4s-.1.2-.2.3c-.3.4-.4.5-.6.5s-.2-.1-.3-.3l-.1-.3a.22.22,0,0,0-.2-.2l-.1.1c-.1.1-.1.2-.1.4v.5a1.42,1.42,0,0,1-.2.6c-.1.2-.3.3-.4.5s-.2.2-.3.2-.2-.1-.2-.3l-.2-.6a.22.22,0,0,0-.2-.2c-.1,0-.2.2-.2.5-.1.7-.2,1.2-.4,1.3l-.5.4a.76.76,0,0,1-.4.2c-.1,0-.2,0-.2-.1l-.2-.5a.1.1,0,0,0-.1-.1c-.1,0-.2.3-.3.7a2.36,2.36,0,0,1-1,2.1,2.17,2.17,0,0,0-.8.9,2,2,0,0,1-.4-1.3c0-.3,0-.5.1-.6a1.69,1.69,0,0,0,.2-.5.1.1,0,0,0-.1-.1.31.31,0,0,0-.2.1,1.38,1.38,0,0,1-.4.3,1.17,1.17,0,0,0-.8,1.1,1.52,1.52,0,0,1-1.5,1.4c-1.1.2-1.2.2-1.5.6Z" transform="translate(-2 -1.6)"/><path class="cls-6" d="M68,69.2V70a.9.9,0,0,1-.1.5,2.64,2.64,0,0,0-.1.7,2.82,2.82,0,0,0,.4,1.5,2.61,2.61,0,0,1,.3,1.1.35.35,0,0,1-.1.2c-.1,0-.1,0-.2-.1l-.3-.4c-.2-.3-.4-.4-.9-.4h-.6c.2.5.3.8.4,1.1.3,1,.3,1.1.9,1.6s.6.6.6.8-.1.3-.2.3h-.3c-.2,0-.3.3-.3.7a3.09,3.09,0,0,0,.2.8c.1.2.2.3.2.4l.3.3a.37.37,0,0,1,.1.3c0,.2-.1.3-.2.3a.37.37,0,0,1-.3-.1.35.35,0,0,1-.2-.1c-.1,0-.2.1-.2.3l.1.5.2.8c0,.2.2.4.4.6a1.76,1.76,0,0,0,.5.4l.6.3c.1,0,.1.1.1.3a.22.22,0,0,1-.2.2.77.77,0,0,1-.3-.1h-.3c-.3,0-.3,0-.3.3a.9.9,0,0,0,.1.5l.1.5c.1.5.3.8.5.8a.31.31,0,0,0,.2-.1,3.72,3.72,0,0,1,2-.7,4.87,4.87,0,0,1,1.5.2.49.49,0,0,0,.3.1c.1,0,.1-.1.1-.4l.1-.6.1-1,.1-.7v-.4c-.1.1-.2.2-.3.2a1.93,1.93,0,0,1-1.5.7c-1.5,0-2.3-1.7-2.3-4.5a34,34,0,0,1,.5-4.8,3.44,3.44,0,0,0,.1-.9A3.48,3.48,0,0,0,68,69.2" transform="translate(-2 -1.6)"/><path class="cls-6" d="M70.2,76.4l.3-.3.3-.3a1.78,1.78,0,0,0,.4-1,.9.9,0,0,0-.1-.5c-.1-.2-.3-.5-.5-.5s-.2.3-.2.7l-.1.5-.1.5v.9Z" transform="translate(-2 -1.6)"/><path class="cls-6" d="M67.3,89.5c.3.1.4.2.7.6a1.37,1.37,0,0,0,1.3.6.9.9,0,0,0,.5-.1l.4-.1.3-.1c.2,0,.3-.1.3-.2s-.3-.3-.6-.5a3,3,0,0,0-.8-.4,2.54,2.54,0,0,0-.7-.2,2.5,2.5,0,0,0-1.4.4" transform="translate(-2 -1.6)"/><path class="cls-6" d="M71.7,98.5A2.14,2.14,0,0,1,74,96.6c.6,0,1,.1,1,.3s-.3.4-.9.7a4.54,4.54,0,0,0-.9.5,4.59,4.59,0,0,1-1.4.7Z" transform="translate(-2 -1.6)"/><path class="cls-6" d="M84.7,90.8c.5-.1.6-.2.8-.2h.6c.1,0,.2-.1.4-.3s.3-.2.4-.3c.6-.4.7-.5.7-.6s-.3-.3-.8-.3c-1,0-1.6.5-2.1,1.7" transform="translate(-2 -1.6)"/><path class="cls-3" d="M75,71.2l.5.3a5.92,5.92,0,0,1,.6.4c.5.2.7.3.7.5a.76.76,0,0,1-.1.4,4.33,4.33,0,0,0-.1.5.47.47,0,0,1-.5.5c-.2,0-.4-.3-.8-1a5,5,0,0,1-.5-1.3v-.1a.22.22,0,0,1,.2-.2" transform="translate(-2 -1.6)"/><path class="cls-3" d="M79.4,72.4l-.7.7a.94.94,0,0,0-.3.7.35.35,0,0,1-.2.1h0a.27.27,0,0,1-.3-.3v-1h0c0-.2.1-.3.3-.4l.7-.2.7-.4a.77.77,0,0,1,.3-.1.22.22,0,0,1,.2.2.31.31,0,0,1-.1.2Z" transform="translate(-2 -1.6)"/><path class="cls-3" d="M76.1,74.5l.5.4a.6.6,0,0,0,.4.1,3.09,3.09,0,0,0,.8-.2l.4-.2a.35.35,0,0,0,.2-.1.56.56,0,0,1,.5.6,3.2,3.2,0,0,1-.8,1.7l-.4.7c-.3.4-.5.5-.7.5-.4,0-.6-.2-1.1-1.3a4.29,4.29,0,0,1-.6-1.7c0-.3.2-.6.4-.6a.76.76,0,0,0,.4.1" transform="translate(-2 -1.6)"/><path class="cls-6" d="M76.5,76.3v.6a.47.47,0,0,0,.5.5c.3,0,.5-.4.6-1.1a1.58,1.58,0,0,0,.1-.4c0-.2-.1-.3-.4-.3h-.5q-.3,0-.3.6" transform="translate(-2 -1.6)"/><path class="cls-3" d="M40.5,61.8h3.1v6.4h3.7V61.8h9.3v6.4h3.7V61.8h3.1V45.2H59.8l-.1-.2A2.06,2.06,0,0,0,58,44a1.89,1.89,0,0,0-1.7,1.2H53.7a1.88,1.88,0,0,0-3.5,0H47.4A2,2,0,0,0,45.6,44a1.79,1.79,0,0,0-1.7,1.2H40.5Z" transform="translate(-2 -1.6)"/><rect class="cls-5" x="39.8" y="45" width="20.4" height="14"/><path class="cls-6" d="M43.9,49.8a1,1,0,1,0,1,1,1,1,0,0,0-1-1" transform="translate(-2 -1.6)"/><path d="M43.9,51.9A1.1,1.1,0,1,1,45,50.8,1.11,1.11,0,0,1,43.9,51.9Zm0-2a.8.8,0,1,0,.8.8C44.8,50.3,44.4,49.9,43.9,49.9Z" transform="translate(-2 -1.6)"/><path class="cls-6" d="M59.9,49.8a1,1,0,1,0,1,1,1,1,0,0,0-1-1" transform="translate(-2 -1.6)"/><path d="M59.9,51.9A1.1,1.1,0,1,1,61,50.8,1.11,1.11,0,0,1,59.9,51.9Zm0-2a.8.8,0,1,0,.8.8C60.8,50.3,60.4,49.9,59.9,49.9Z" transform="translate(-2 -1.6)"/><path class="cls-6" d="M43.9,57.4a1,1,0,0,0,0,2,.92.92,0,0,0,.9-1,.87.87,0,0,0-.9-1" transform="translate(-2 -1.6)"/><path d="M43.9,59.5A1.1,1.1,0,1,1,45,58.4,1.11,1.11,0,0,1,43.9,59.5Zm0-2a.79.79,0,0,0-.8.8.82.82,0,0,0,.9.8.86.86,0,0,0,.8-.8A.88.88,0,0,0,43.9,57.5Z" transform="translate(-2 -1.6)"/><path class="cls-6" d="M59.9,57.4a1,1,0,1,0,1,1,1,1,0,0,0-1-1" transform="translate(-2 -1.6)"/><path d="M59.9,59.5A1.1,1.1,0,1,1,61,58.4,1.11,1.11,0,0,1,59.9,59.5Zm0-2a.8.8,0,1,0,.8.8C60.8,57.9,60.4,57.5,59.9,57.5Z" transform="translate(-2 -1.6)"/><path class="cls-6" d="M47,54.5A6.3,6.3,0,0,0,52,57c1.9,0,3.2-.7,4.7-2.5a6.16,6.16,0,0,0-4.8-2.2A5.6,5.6,0,0,0,47,54.5" transform="translate(-2 -1.6)"/><path class="cls-3" d="M47.9,54.5a5.82,5.82,0,0,1,7.8,0,5,5,0,0,1-3.9,1.7,6,6,0,0,1-3.9-1.7" transform="translate(-2 -1.6)"/><path class="cls-6" d="M49.6,54.1a4,4,0,0,0,2.2.7,3.69,3.69,0,0,0,2.3-.7,4.93,4.93,0,0,0-2.3-.6,7.09,7.09,0,0,0-2.2.6" transform="translate(-2 -1.6)"/><rect class="cls-3" x="39.5" y="45.7" width="21" height="0.7"/><path d="M62.5,48.1h-21v-.8h21ZM41.6,48H62.5v-.6H41.6Z" transform="translate(-2 -1.6)"/><path class="cls-6" d="M44.7,46.4v2a.82.82,0,0,0,.9.8c.6,0,.9-.3.9-.8v-2c0-.8-.3-1.2-.8-1.2a.6.6,0,0,0-.4.1.35.35,0,0,0-.2.1c-.1.1-.1.2-.2.3a.76.76,0,0,0-.1.4" transform="translate(-2 -1.6)"/><path class="cls-6" d="M51,48.1v.4a.82.82,0,0,0,.9.8c.6,0,.9-.3.9-.8v-2c0-.8-.3-1.2-.8-1.2s-.9.5-.9,1.2" transform="translate(-2 -1.6)"/><path class="cls-6" d="M57.1,46.4v2a.82.82,0,0,0,.9.8c.6,0,.9-.3.9-.8v-2c0-.8-.3-1.2-.8-1.2a.6.6,0,0,0-.4.1.35.35,0,0,0-.2.1c-.1.1-.1.2-.2.3a.76.76,0,0,0-.1.4" transform="translate(-2 -1.6)"/><rect class="cls-6" x="42.3" y="61.7" width="1.9" height="2.5"/><rect class="cls-6" x="42.3" y="64.7" width="1.9" height="0.8"/><rect class="cls-6" x="55.3" y="61.7" width="1.9" height="2.5"/><rect class="cls-6" x="55.3" y="64.7" width="1.9" height="0.8"/><path class="cls-3" d="M162,3.7V5.2h-1c-1.4,0-3.8,0-3.8,4.5V28c0,11.2-4.9,16.6-14.9,16.6-11.3,0-16.6-4.5-16.6-14.2V9.6c0-4.5-2.4-4.5-4.6-4.5h-.5V3.6h16.9V5.1H137c-2.1,0-4.7,0-4.7,4.5V29.4c0,8.5,3.6,12.7,10.9,12.7,7.1,0,10.9-4.5,10.9-12.9V9.6c0-4.5-2.5-4.5-4.3-4.5h-.9V3.6c.6.1,12.7.1,13.1.1" transform="translate(-2 -1.6)"/><path class="cls-3" d="M180.3,42.3v1.5H166V42.3h.6c4.7,0,5.3-3.6,5.3-7.6V10.6c0-3.8-2.2-5.4-5.3-5.4h-.5V3.7h11.2l24.3,29.8V10.8c0-5.1-3.6-5.7-5.1-5.7h-1V3.6h14.4V5.1h-.6c-2.5,0-5.2.6-5.2,7.6V43.9H202L174.3,10.6V34.7c0,4,.6,7.6,5.4,7.6" transform="translate(-2 -1.6)"/><path class="cls-3" d="M256.9,35.3l8.8-24.6c1.6-4.2.6-5.5-3.1-5.5h-.7V3.7h11.4V5.2H273c-1.2,0-2.7.4-3.8,3.1L255.9,43.9h-2.5L238.9,8.6c-1.2-2.9-2.5-3.4-4.9-3.4h-.3V3.7h16.5V5.2h-1.1c-2.8,0-3.4,1.8-2.6,3.9" transform="translate(-2 -1.6)"/><path class="cls-3" d="M329.9,3.7c8.9,0,13.3,3.3,13.3,10,0,5.7-4.4,8.6-7.9,10l-.3.1,9.8,14.9c1.6,2.4,2.9,3.4,5.6,3.5v1.5H340.2L328.3,24.9h-4.4V37.4c0,4.5,2,4.9,4.8,4.9h.8v1.5H312.1V42.3h.8c1.9,0,4.2-.9,4.2-3.4V9.8c0-4.6-2.7-4.6-4.2-4.6h-.8V3.7h17.8m-6.2,1.9V23.3h3.4c6.2,0,9-2.8,9-9.3,0-5.3-3.4-8.7-8.5-8.7C326.4,5.4,324.8,5.4,323.7,5.6Z" transform="translate(-2 -1.6)"/><path class="cls-3" d="M371.5,36.2c0-4.9-4.2-6.8-8.1-8.8-4.6-2.4-9.8-4.8-9.8-12.2,0-7.2,5.4-11.8,13.2-11.8a40,40,0,0,1,8.4,1l.5,7.8-1.5.2c-.7-4.1-2.8-7.2-7.4-7.2-4.3,0-7.5,2.7-7.5,7.4,0,4.5,4.2,6.4,8,8.3,4.8,2.4,10.2,4.9,10.2,12.3,0,8.3-7.4,12-14.2,12a19.23,19.23,0,0,1-9.5-2.3l-1-8.7,1.5-.3c1.1,5.8,4.8,9.1,9.6,9.1,4.6,0,7.6-2.8,7.6-6.8" transform="translate(-2 -1.6)"/><path class="cls-3" d="M400,3.7V5.2h-.6c-2.3,0-4.4.4-4.4,3.5v30c0,3.1,2.1,3.5,4.4,3.5h.6v1.5H383.3V42.2h.6c2.3,0,4.4-.4,4.4-3.5V8.7c0-3.1-2.1-3.5-4.4-3.5h-.6V3.7H400" transform="translate(-2 -1.6)"/><path class="cls-3" d="M231.3,3.7V5.2h-.6c-2.3,0-4.4.4-4.4,3.5v30c0,3.1,2.1,3.5,4.4,3.5h.6v1.5H214.6V42.2h.6c2.3,0,4.4-.4,4.4-3.5V8.7c0-3.1-2.1-3.5-4.4-3.5h-.6V3.7h16.7" transform="translate(-2 -1.6)"/><path class="cls-3" d="M564.5,61.5l.1,10.6-1.7.4c-.4-4.6-1.4-8.4-8.9-8.4H544V83.7h8.6c4.2,0,5.3-2.4,5.8-6.4h1.7V93.7h-1.7c-.3-3.9-1.2-7-5.8-7H544v17.2c0,5,4.3,5,8.9,5,8.2,0,12-.5,14.3-8.8.3.1,1.7.4,1.7.4l-2.3,11.1H529.3v-1.8h.7c2.9,0,5.5-.5,5.5-4.4V67.7c0-3.9-2.6-4.4-5.5-4.4h-.7V61.5h35.2" transform="translate(-2 -1.6)"/><path class="cls-3" d="M361.4,61.5c11.1,0,16.6,4.1,16.6,12.5,0,7.1-5.6,10.8-10,12.5l-.3.1L380,105.3c2,3,3.6,4.2,7,4.4v1.9H374.1L359.2,88h-5.5v15.6c0,5.7,2.5,6.1,6.1,6.1h1v1.8H339v-1.8h1c2.4,0,5.3-1.1,5.3-4.2V69c0-5.8-3.4-5.8-5.3-5.8h-1V61.4c.5.1,22.4.1,22.4.1m-7.7,2.4V86.1H358c7.8,0,11.3-3.5,11.3-11.6,0-6.6-4.3-10.9-10.7-10.9A37.93,37.93,0,0,0,353.7,63.9Z" transform="translate(-2 -1.6)"/><path class="cls-3" d="M411,61.5v1.8h-.7c-2.9,0-5.5.5-5.5,4.4v37.7c0,3.9,2.6,4.4,5.5,4.4h.7v1.8H390v-1.8h.7c2.9,0,5.5-.5,5.5-4.4V67.7c0-3.9-2.6-4.4-5.5-4.4H390V61.5h21" transform="translate(-2 -1.6)"/><path class="cls-3" d="M408.7,3.7h26.5c1.3,0,3-.3,3.3-2.1h1.3l-1,10.4h-1.4c-.1-2.4-.4-5.9-4.3-5.9H425V37c0,4.8,2.3,5.2,4.9,5.2h.8v1.5H412.5V42.2h.8c3,0,4.9-.2,4.9-5.1V6.1H410c-4.2,0-4.6,1.8-5.4,5.9h-1.4l.9-10.3h1.2c.5,1.7,2,2,3.4,2" transform="translate(-2 -1.6)"/><path class="cls-3" d="M480.7,3.7V5.2c-2.3.1-3.7,1.7-4.7,3.2L465.8,24.1V36.9c0,5.1,1.8,5.5,4.9,5.5h.8v1.5H453.3V42.4h.8c3.2,0,4.9-.8,4.9-5V25.1L448,9.3c-1.7-2.4-3-4-5.6-4h-.3V3.8h16.5V5.3h-.5c-3.2,0-3.4,1.7-2.1,3.6l8.5,13.2,7.6-12c1.7-2.6,2.2-4.9-2.1-4.9h-.7V3.7" transform="translate(-2 -1.6)"/><path class="cls-3" d="M492.8,24c0-11.9,9-21.2,20.5-21.2,12.6,0,21.3,8.1,21.3,19.8,0,12.7-8.8,22-21,22-12,0-20.8-8.6-20.8-20.6m7.5-2c0,9.9,4.4,20.5,14,20.5,8.8,0,13-6.1,13-18.6,0-9.2-4.9-19-14-19C501.2,4.9,500.3,18,500.3,22Z" transform="translate(-2 -1.6)"/><path class="cls-3" d="M539.3,43.7V42.2h.6c2.3,0,4.4-.4,4.4-3.5V8.7c0-3.1-2.1-3.5-4.4-3.5h-.6V3.7h28l.1,8.5a5,5,0,0,1-1.3.3c-.3-3.4-1.1-6.7-5.9-6.7h-9.1V21.5h8c3.3,0,3.8-2.6,3.8-4.7h1.3V29.6h-1.3c0-2.5-.6-5.7-4.7-5.7h-7.1V38.7c0,3.5,3,3.5,5.6,3.5h.5v1.5" transform="translate(-2 -1.6)"/><path class="cls-3" d="M123.8,86.6c0-7.5,3-14.8,8.2-19.5a27.25,27.25,0,0,1,18.4-6.8,39.22,39.22,0,0,1,17,3.6l.5,11.6-1.6.2c-1.9-6.7-5-12.9-15.7-12.9-10.9,0-17.7,8.7-17.7,22.6,0,12.4,5.5,24.1,18.8,24.1,7.5,0,12.8-2.8,16.8-8l1.3,2.5c-4.5,5.9-11.5,9-19.5,9-16.1,0-26.5-9.5-26.5-26.4" transform="translate(-2 -1.6)"/><path class="cls-3" d="M232.1,71.2l-1.7,31c-.3,6.9,1.8,7.5,6.4,7.6h.4v1.8H220.3v-1.8h.6c5.7-.2,6.1-3.4,6.3-8l2-31.7c.3-4.3-2.1-6.8-6.1-6.8h-.6V61.5h14.2c.2.4,17,38,17,38s16-37.6,16.1-38.1h13.9v1.8h-.3c-5.6,0-6.6,1.8-6.2,8.9l1.9,33.3c.3,3.9,2.3,4.2,6.2,4.4v1.8H264.5v-1.8h.1c3.4-.2,5.8-.3,5.8-3.8l-.1-3.6-1.5-32.1s-17.2,41.3-17.4,41.7h-1.5c.2-.3-17.8-40.8-17.8-40.8" transform="translate(-2 -1.6)"/><path class="cls-3" d="M418.9,111.7v-1.8h.7c2.9,0,5.5-.5,5.5-4.4V67.8c0-3.9-2.6-4.4-5.5-4.4h-.7V61.6h22.4c8.3,0,15.3,2.1,20.2,6.6s7.4,10.8,7.4,18.3a26.57,26.57,0,0,1-7.7,18.7c-4.9,4.9-11.8,6.5-18.8,6.5m-8.7-47.8v39.4c0,5.3,2.3,6.2,7.6,6.2,12.7,0,18.5-10.9,18.5-21.6,0-16.6-6.9-24.2-21-24.2C437.5,63.7,434.9,63.8,433.7,63.9Z" transform="translate(-2 -1.6)"/><path class="cls-3" d="M511.7,109.1V96.8c0-2.7-2-4.1-5.7-4.1h-.6V90.9h19.3v1.8h-.6c-2.7,0-4.1,1.4-4.1,4.1v13.7a58.14,58.14,0,0,1-17.6,2.7c-16.6,0-27.3-10.7-27.3-27.4,0-17.7,14.1-25.7,27.4-25.7a54.24,54.24,0,0,1,16,2.5l.8,12h-1.7c-2.1-8.6-5.9-12-14.6-12-11.7,0-18.7,8.6-18.7,22.4,0,12.7,6,25.3,19.3,25.3a18,18,0,0,0,8.1-1.2" transform="translate(-2 -1.6)"/><path class="cls-3" d="M307.5,85.7v17.7c0,4.9,1.6,6.3,6.7,6.3,6.1,0,10.7-5,10.7-11.9,0-7.7-4.7-12.1-12.6-12.1m-4.8-22.3V83.6h3.8c6.9,0,10.7-3.4,10.7-9.8,0-7.1-3.3-10.4-10-10.4Zm10.2,21c6.3.5,9.7,1.9,12.5,4.8a11.54,11.54,0,0,1,3.3,8.4c0,7.9-7.2,14.2-16.6,14.2H292.3V110h1c2.4,0,5.3-1.2,5.3-4.3V69.3c0-5.8-3.4-5.8-5.3-5.8h-1V61.7h22.3c10.5,0,16.2,3.8,16.2,11,.1,7.7-6.9,10.7-13.1,11.7" transform="translate(-2 -1.6)"/><path class="cls-3" d="M192.1,61.5l-15.9,43.3c-1.2,3.1-3.3,5-6.4,5h-.2v1.9h15.3v-1.9h-.7c-3.7,0-6.2-1.2-4.6-5.9l3.6-10.1H199l4,11c1.1,3.5-.3,5.1-4.1,5.1h-.4v1.9h19.4v-1.9h-.2c-2.6,0-4.4-1.4-5.6-4.8L195.8,61.5m-4.6,10.2,7,19.6h-14Z" transform="translate(-2 -1.6)"/><path class="cls-3" d="M304,3.7l.1,8.5a7.83,7.83,0,0,1-1.4.3c-.3-3.7-1.1-6.7-7.1-6.7h-8V21.4h6.8c3.3,0,4.3-1.9,4.6-5.1h1.4V29.4H299c-.2-3.1-.9-5.6-4.6-5.6h-6.8V37.6c0,4,3.4,4,7.1,4,6.5,0,9.6-.4,11.4-7,.3.1,1.3.3,1.3.3l-1.8,8.8H275.9V42.2h.6c2.3,0,4.4-.4,4.4-3.5V8.7c0-3.1-2.1-3.5-4.4-3.5h-.6V3.7H304" transform="translate(-2 -1.6)"/></g></svg>